<?xml version="1.0" encoding="UTF-8"?>
<svg version="1.1" xmlns="http://www.w3.org/2000/svg" width="550" height="75">
<path d="M0 0 C181.5 0 363 0 550 0 C550 24.75 550 49.5 550 75 C368.5 75 187 75 0 75 C0 50.25 0 25.5 0 0 Z " fill="#000000" transform="translate(0,0)"/>
<path d="M0 0 C5.90493032 4.49423872 8.60059932 10.49385997 10.09765625 17.65625 C10.58700394 24.12079047 8.21428089 30.2125718 4.140625 35.15625 C-1.72126453 40.74095736 -7.78984708 43.7385769 -15.90234375 44.15625 C-24.16300436 43.73094866 -30.07896244 40.6436797 -36.015625 34.9453125 C-40.77408721 29.4873662 -41.48202396 23.6210048 -41.24609375 16.5234375 C-40.47771034 10.39383347 -38.18074909 5.62378084 -33.65234375 1.40625 C-23.74551349 -6.13383223 -10.52213919 -6.74108301 0 0 Z " fill="#FAFAFA" transform="translate(245.90234375,19.21875)"/>
<path d="M0 0 C5.22616412 3.68789694 9.12655679 8.18019453 11.5703125 14.0859375 C12.84467934 22.68791366 11.71015332 29.4235339 6.9453125 36.7109375 C1.05515753 42.34499877 -5.0862201 45.08836308 -13.1796875 45.7109375 C-21.27094611 45.17152026 -28.15890509 42.23171991 -33.9296875 36.4609375 C-38.04894118 30.81779807 -39.49624877 24.22876851 -38.67578125 17.32421875 C-37.09571823 9.85094771 -33.07729135 4.92096383 -26.9296875 0.4609375 C-18.92253388 -4.27799015 -8.26218163 -4.29877347 0 0 Z " fill="#FAFAFA" transform="translate(386.9296875,17.5390625)"/>
<path d="M0 0 C1.06476563 -0.020625 2.12953125 -0.04125 3.2265625 -0.0625 C11.17454124 -0.10155641 18.04884673 0.53313466 24.4375 5.5625 C28.51867223 10.88039109 28.86702553 15.36651276 28.046875 21.83984375 C27.22751756 25.45086906 25.93135646 27.46109112 23.5 30.25 C22.51 30.58 21.52 30.91 20.5 31.25 C21.1496875 32.23742187 21.799375 33.22484375 22.46875 34.2421875 C23.31273833 35.53630293 24.15647535 36.83058229 25 38.125 C25.42925781 38.77597656 25.85851562 39.42695312 26.30078125 40.09765625 C29.5 45.0234375 29.5 45.0234375 29.5 47.25 C24.65339316 47.97598272 20.30785342 48.3278045 15.5 47.25 C13.02792473 44.30418208 11.63431922 41.40609687 10.03125 37.921875 C8.79975124 35.13544745 8.79975124 35.13544745 6.53125 34.453125 C4.35594621 34.43443556 4.35594621 34.43443556 1.5 35.25 C1.17 39.21 0.84 43.17 0.5 47.25 C-3.79 47.25 -8.08 47.25 -12.5 47.25 C-12.52464347 40.71720661 -12.54283291 34.18444002 -12.55493164 27.65161133 C-12.55997317 25.42732268 -12.56680623 23.20303737 -12.57543945 20.97875977 C-12.58751298 17.78921691 -12.59322996 14.59971771 -12.59765625 11.41015625 C-12.60281754 10.40912369 -12.60797882 9.40809113 -12.61329651 8.37672424 C-12.61337204 7.45584518 -12.61344757 6.53496613 -12.61352539 5.58618164 C-12.615746 4.77121719 -12.61796661 3.95625275 -12.62025452 3.11659241 C-12.2914504 -1.98711003 -3.79825242 0.01787413 0 0 Z " fill="#FAFAFA" transform="translate(316.5,14.75)"/>
<path d="M0 0 C5.9090625 -0.0928125 5.9090625 -0.0928125 11.9375 -0.1875 C13.77235962 -0.22846802 13.77235962 -0.22846802 15.64428711 -0.27026367 C22.56156237 -0.32247588 29.93996522 -0.27472704 35.58154297 4.27563477 C38.80825132 7.78411365 40.28995171 11.34523896 41 16 C40.65758295 20.89656387 39.63377953 24.63868242 36.3125 28.3125 C35.549375 29.199375 34.78625 30.08625 34 31 C34.37721456 35.32898614 37.27090821 38.45799663 39.72265625 41.87890625 C41 44 41 44 41 47 C36.38 47 31.76 47 27 47 C21 36.25 21 36.25 21 34 C18.36 34.33 15.72 34.66 13 35 C13.01160156 35.78246094 13.02320313 36.56492188 13.03515625 37.37109375 C13.04417969 38.38300781 13.05320313 39.39492188 13.0625 40.4375 C13.07410156 41.44683594 13.08570313 42.45617188 13.09765625 43.49609375 C13 46 13 46 12 47 C8.04 47 4.08 47 0 47 C0 31.49 0 15.98 0 0 Z " fill="#FAFAF9" transform="translate(161,15)"/>
<path d="M0 0 C11 0 11 0 13.66992188 1.86425781 C14.26353516 2.71858398 14.85714844 3.57291016 15.46875 4.453125 C16.14164063 5.38253906 16.81453125 6.31195313 17.5078125 7.26953125 C18.16523437 8.25308594 18.82265625 9.23664062 19.5 10.25 C20.18835938 11.21808594 20.87671875 12.18617187 21.5859375 13.18359375 C22.86208835 14.98361197 24.12365699 16.79412673 25.36523438 18.61816406 C26.8529901 20.78580816 28.42254785 22.89673046 30 25 C30.33 16.75 30.66 8.5 31 0 C34.96 0 38.92 0 43 0 C43 15.51 43 31.02 43 47 C31 47 31 47 26.90625 43.01953125 C25.72972141 41.31145443 24.59474428 39.57411315 23.5 37.8125 C22.3438223 36.08979523 21.18757429 34.36713764 20.03125 32.64453125 C19.29745117 31.48981323 19.29745117 31.48981323 18.54882812 30.31176758 C16.84583797 27.76989907 14.9113291 25.38916137 13 23 C12.67 30.92 12.34 38.84 12 47 C8.04 47 4.08 47 0 47 C0 31.49 0 15.98 0 0 Z " fill="#F9F9F9" transform="translate(17,15)"/>
<path d="M0 0 C3.774375 -0.061875 7.54875 -0.12375 11.4375 -0.1875 C12.60853271 -0.21481201 13.77956543 -0.24212402 14.98608398 -0.27026367 C22.94241609 -0.33288015 29.73853253 0.28211044 36 5.5 C40.10650434 10.63313043 39.57025607 16.71089023 39 23 C37.77383213 27.16601615 35.4654055 29.59664857 32.1875 32.4375 C26.53113801 35.36535257 19.19878521 34.2872024 13 34 C13 38.29 13 42.58 13 47 C8.71 47 4.42 47 0 47 C0 31.49 0 15.98 0 0 Z " fill="#F9F9F9" transform="translate(260,15)"/>
<path d="M0 0 C4.29 0 8.58 0 13 0 C15.55137354 5.88722879 18.09636008 11.77716142 20.63549805 17.66967773 C21.49996265 19.67336176 22.3661599 21.67629919 23.23413086 23.6784668 C24.48228216 26.55843125 25.72415347 29.44103362 26.96484375 32.32421875 C27.35341049 33.21711105 27.74197723 34.11000336 28.14231873 35.029953 C28.50261673 35.87044693 28.86291473 36.71094086 29.23413086 37.5769043 C29.55167831 38.31192673 29.86922577 39.04694916 30.19639587 39.804245 C31 42 31 42 32 47 C27.71 47 23.42 47 19 47 C16 41.25 16 41.25 16 39 C9.4 39 2.8 39 -4 39 C-4.66 41.31 -5.32 43.62 -6 46 C-7 47 -7 47 -9.94140625 47.09765625 C-11.13636719 47.08605469 -12.33132813 47.07445312 -13.5625 47.0625 C-15.35880859 47.04896484 -15.35880859 47.04896484 -17.19140625 47.03515625 C-18.11824219 47.02355469 -19.04507812 47.01195312 -20 47 C-18.38687823 41.81596832 -16.30119901 36.91583176 -14.12109375 31.953125 C-13.74896255 31.10071228 -13.37683136 30.24829956 -12.99342346 29.37005615 C-11.8105389 26.66230383 -10.62400579 23.95616718 -9.4375 21.25 C-8.63584151 19.41546341 -7.83440684 17.580829 -7.03320312 15.74609375 C-5.57086302 12.40080479 -4.10848996 9.05553258 -2.64233398 5.71191406 C-2.34858383 5.0416217 -2.05483368 4.37132935 -1.75218201 3.6807251 C-1.1971088 2.4404329 -0.60768923 1.21537846 0 0 Z " fill="#FAFAF9" transform="translate(500,15)"/>
<path d="M0 0 C11.88 0 23.76 0 36 0 C37.62651522 3.25303044 37.11453156 6.39225602 37 10 C36 11 36 11 33.68334961 11.11352539 C32.68311768 11.10828857 31.68288574 11.10305176 30.65234375 11.09765625 C29.57275391 11.09443359 28.49316406 11.09121094 27.38085938 11.08789062 C26.24455078 11.07951172 25.10824219 11.07113281 23.9375 11.0625 C22.79732422 11.05798828 21.65714844 11.05347656 20.48242188 11.04882812 C17.65489649 11.03699747 14.8274736 11.0205141 12 11 C12 13.31 12 15.62 12 18 C19.26 18 26.52 18 34 18 C34 21.63 34 25.26 34 29 C26.74 29 19.48 29 12 29 C12 31.64 12 34.28 12 37 C20.25 37 28.5 37 37 37 C37 40.3 37 43.6 37 47 C24.79 47 12.58 47 0 47 C0 31.49 0 15.98 0 0 Z " fill="#FEFEFE" transform="translate(68,15)"/>
<path d="M0 0 C3.96 0 7.92 0 12 0 C13.44159914 2.88319829 13.16487955 5.43399164 13.2109375 8.65234375 C13.23900187 9.9993612 13.26766631 11.34636625 13.296875 12.69335938 C13.33816581 14.81762399 13.37505148 16.94165615 13.40136719 19.06616211 C13.42896442 21.11620853 13.47482618 23.1652024 13.5234375 25.21484375 C13.54325684 26.44323975 13.56307617 27.67163574 13.58349609 28.93725586 C13.74768269 31.97385346 13.74768269 31.97385346 15.39501953 33.89697266 C17.51160428 35.35160148 18.94545507 35.43324243 21.5 35.4375 C22.2734375 35.45683594 23.046875 35.47617187 23.84375 35.49609375 C26.1034803 35.17493513 26.1034803 35.17493513 27.6027832 33.41723633 C29.49872658 30.13718472 29.4343241 27.60498398 29.51171875 23.828125 C29.52966995 23.1457074 29.54762115 22.46328979 29.56611633 21.76019287 C29.62010383 19.5901906 29.65407583 17.42040675 29.6875 15.25 C29.72068352 13.77470926 29.75517415 12.29944731 29.79101562 10.82421875 C29.87582158 7.21635573 29.94268837 3.60841638 30 0 C31.97909398 -0.02686553 33.95828971 -0.04633375 35.9375 -0.0625 C37.03964844 -0.07410156 38.14179688 -0.08570313 39.27734375 -0.09765625 C42 0 42 0 43 1 C43.24400131 4.98683345 43.22861641 8.97751649 43.24023438 12.97119141 C43.24982667 14.96398969 43.28096573 16.95664689 43.3125 18.94921875 C43.34710163 27.50447134 43.24340561 35.07377216 37.625 41.875 C31.27451089 47.01587214 26.18285479 48.54552365 18 48 C11.86558024 46.64036421 7.3500138 44.55715731 3 40 C0.37126025 34.92385324 -0.42242252 30.83054259 -0.29296875 25.09765625 C-0.28872391 24.3750914 -0.28447906 23.65252655 -0.28010559 22.9080658 C-0.26346418 20.62581307 -0.22584248 18.34448067 -0.1875 16.0625 C-0.17243423 14.50457015 -0.15874916 12.9466263 -0.14648438 11.38867188 C-0.11360882 7.59209943 -0.0619309 3.79620513 0 0 Z " fill="#FAFAFA" transform="translate(111,15)"/>
<path d="M0 0 C1.79296875 1.16796875 1.79296875 1.16796875 2.79296875 4.16796875 C2.015625 6.2109375 2.015625 6.2109375 0.85546875 8.35546875 C0.28505859 9.42861328 0.28505859 9.42861328 -0.296875 10.5234375 C-0.59722656 11.06613281 -0.89757812 11.60882813 -1.20703125 12.16796875 C-2.13322266 11.843125 -2.13322266 11.843125 -3.078125 11.51171875 C-9.04343432 9.55052117 -13.93583492 8.86452377 -20.20703125 9.16796875 C-19.87703125 10.15796875 -19.54703125 11.14796875 -19.20703125 12.16796875 C-16.85466538 13.31388434 -16.85466538 13.31388434 -14.01953125 14.16796875 C-13.02308594 14.51085937 -12.02664063 14.85375 -11 15.20703125 C-10.07832031 15.52414063 -9.15664063 15.84125 -8.20703125 16.16796875 C-3.44097787 18.1096942 0.44947735 20.44143336 2.79296875 25.16796875 C3.74890858 29.52360436 3.8265036 33.35679031 1.578125 37.296875 C-1.63086954 41.20809226 -4.63664501 43.66603506 -9.6875 44.65234375 C-19.85154338 45.64968134 -27.71617745 44.08124193 -36.20703125 38.16796875 C-36.53703125 37.50796875 -36.86703125 36.84796875 -37.20703125 36.16796875 C-36.2109375 34.00390625 -36.2109375 34.00390625 -34.76953125 31.54296875 C-34.29644531 30.72570313 -33.82335937 29.9084375 -33.3359375 29.06640625 C-32.96339844 28.43992187 -32.59085937 27.8134375 -32.20703125 27.16796875 C-31.58957031 27.51730469 -30.97210938 27.86664063 -30.3359375 28.2265625 C-24.70529359 31.25185519 -19.69157367 33.36362305 -13.20703125 33.16796875 C-12.21703125 32.67296875 -12.21703125 32.67296875 -11.20703125 32.16796875 C-11.13961653 30.21257594 -11.13961653 30.21257594 -12.20703125 28.16796875 C-14.66365784 27.13738394 -16.90671492 26.36438281 -19.45703125 25.66796875 C-25.18269934 24.06831196 -29.90770817 22.34322443 -33.51953125 17.35546875 C-34.90126035 12.95905797 -34.60332195 9.29079241 -33.08203125 4.98046875 C-25.79997149 -5.94262089 -10.73834479 -4.57211744 0 0 Z " fill="#FAFAF9" transform="translate(437.20703125,17.83203125)"/>
<path d="M0 0 C12.87 0 25.74 0 39 0 C39 3.63 39 7.26 39 11 C34.71 11 30.42 11 26 11 C26 22.88 26 34.76 26 47 C21.71 47 17.42 47 13 47 C13 35.12 13 23.24 13 11 C8.71 11 4.42 11 0 11 C0 7.37 0 3.74 0 0 Z " fill="#FAFAFA" transform="translate(442,15)"/>
<path d="M0 0 C3.34862121 2.96809608 4.5132719 5.145326 5.75 9.4375 C5.75 15.52618732 3.83722332 18.2505883 -0.25 22.4375 C-3.74160447 24.18330224 -7.44045358 24.00733131 -11.25 23.4375 C-14.60259386 21.73649975 -16.7027193 19.31790809 -18.6875 16.125 C-19.75152842 11.04130868 -19.21481008 6.9678884 -16.4375 2.5625 C-11.47106962 -2.26203237 -6.40271587 -3.07822878 0 0 Z " fill="#000000" transform="translate(380.25,27.5625)"/>
<path d="M0 0 C3.08400153 2.05600102 4.5868066 3.51414557 5.58984375 7.12109375 C6.29606055 11.82656076 6.2096543 15.68113023 4 20 C1.74174929 22.68167272 0.10497921 23.8218948 -3.375 24.3828125 C-7.63690744 24.57307622 -10.26750917 24.42728632 -14 22.25 C-17.63222043 18.16375201 -18.55504649 14.71505688 -18.45703125 9.32421875 C-17.66087987 5.27541474 -15.13756796 2.56501906 -12 0 C-7.79914354 -1.40028549 -4.2744815 -1.06487083 0 0 Z " fill="#000000" transform="translate(236,27)"/>
<path d="M0 0 C11.88 0 23.76 0 36 0 C37.62651522 3.25303044 37.11453156 6.39225602 37 10 C36 11 36 11 33.68334961 11.11352539 C32.68311768 11.10828857 31.68288574 11.10305176 30.65234375 11.09765625 C29.57275391 11.09443359 28.49316406 11.09121094 27.38085938 11.08789062 C26.24455078 11.07951172 25.10824219 11.07113281 23.9375 11.0625 C22.79732422 11.05798828 21.65714844 11.05347656 20.48242188 11.04882812 C17.65489649 11.03699747 14.8274736 11.0205141 12 11 C12 13.31 12 15.62 12 18 C19.26 18 26.52 18 34 18 C34 21.3 34 24.6 34 28 C33.67 28 33.34 28 33 28 C33 25.36 33 22.72 33 20 C32.36908447 20.00523682 31.73816895 20.01047363 31.08813477 20.01586914 C28.24626653 20.03657826 25.40441412 20.04964066 22.5625 20.0625 C21.07266602 20.07506836 21.07266602 20.07506836 19.55273438 20.08789062 C18.60849609 20.09111328 17.66425781 20.09433594 16.69140625 20.09765625 C15.37958374 20.10551147 15.37958374 20.10551147 14.04125977 20.11352539 C12 20 12 20 11 19 C10.9020943 17.50261876 10.87025136 16.00057108 10.875 14.5 C10.87242188 13.6853125 10.86984375 12.870625 10.8671875 12.03125 C11 10 11 10 12 9 C13.70772358 8.91286169 15.41898649 8.89299993 17.12890625 8.90234375 C18.68061523 8.90717773 18.68061523 8.90717773 20.26367188 8.91210938 C21.35228516 8.92048828 22.44089844 8.92886719 23.5625 8.9375 C25.2012207 8.94426758 25.2012207 8.94426758 26.87304688 8.95117188 C29.58208495 8.96300174 32.29101599 8.97948457 35 9 C35 6.69 35 4.38 35 2 C23.78 2 12.56 2 1 2 C1 16.52 1 31.04 1 46 C12.55 46 24.1 46 36 46 C36 43.36 36 40.72 36 38 C28.08 38 20.16 38 12 38 C12 37.67 12 37.34 12 37 C20.25 37 28.5 37 37 37 C37 40.3 37 43.6 37 47 C24.79 47 12.58 47 0 47 C0 31.49 0 15.98 0 0 Z " fill="#E5E5E4" transform="translate(68,15)"/>
<path d="M0 0 C1.8975 -0.061875 3.795 -0.12375 5.75 -0.1875 C7.35101563 -0.23970703 7.35101563 -0.23970703 8.984375 -0.29296875 C12.33563062 0.0326066 13.66789429 0.60652309 16 3 C16.51020728 7.08165827 16.31361802 8.52957297 14 12 C9.36297289 13.5456757 4.87528349 13.05735628 0 13 C0 8.71 0 4.42 0 0 Z " fill="#000000" transform="translate(173,26)"/>
<path d="M0 0 C11.625 -0.25 11.625 -0.25 15 2 C16 4.8125 16 4.8125 16 8 C14.25 10.875 14.25 10.875 11 13 C7.22812996 13.41792108 3.81589415 13.22987314 0 13 C0 8.71 0 4.42 0 0 Z " fill="#000000" transform="translate(317,26)"/>
<path d="M0 0 C10.47716578 -0.36978232 10.47716578 -0.36978232 12.828125 1.29296875 C14.81052556 4.18066557 14.42142513 6.62859899 14 10 C11.81735287 12.19268229 10.51205282 12.94181218 7.421875 13.29296875 C6.54015625 13.25816406 5.6584375 13.22335938 4.75 13.1875 C3.1825 13.125625 1.615 13.06375 0 13 C0 8.71 0 4.42 0 0 Z " fill="#000000" transform="translate(273,26)"/>
<path d="M0 0 C0.66 0 1.32 0 2 0 C2.09765625 6.15234375 2.09765625 6.15234375 2 8 C1 9 1 9 -1.31665039 9.11352539 C-2.31688232 9.10828857 -3.31711426 9.10305176 -4.34765625 9.09765625 C-5.42724609 9.09443359 -6.50683594 9.09121094 -7.61914062 9.08789062 C-8.75544922 9.07951172 -9.89175781 9.07113281 -11.0625 9.0625 C-12.20267578 9.05798828 -13.34285156 9.05347656 -14.51757812 9.04882812 C-17.34510351 9.03699747 -20.1725264 9.0205141 -23 9 C-23 11.31 -23 13.62 -23 16 C-15.74 16 -8.48 16 -1 16 C-1 19.3 -1 22.6 -1 26 C-1.33 26 -1.66 26 -2 26 C-2 23.36 -2 20.72 -2 18 C-2.63091553 18.00523682 -3.26183105 18.01047363 -3.91186523 18.01586914 C-6.75373347 18.03657826 -9.59558588 18.04964066 -12.4375 18.0625 C-13.92733398 18.07506836 -13.92733398 18.07506836 -15.44726562 18.08789062 C-16.39150391 18.09111328 -17.33574219 18.09433594 -18.30859375 18.09765625 C-19.62041626 18.10551147 -19.62041626 18.10551147 -20.95874023 18.11352539 C-23 18 -23 18 -24 17 C-24.0979057 15.50261876 -24.12974864 14.00057108 -24.125 12.5 C-24.12757812 11.6853125 -24.13015625 10.870625 -24.1328125 10.03125 C-24 8 -24 8 -23 7 C-21.29227642 6.91286169 -19.58101351 6.89299993 -17.87109375 6.90234375 C-16.31938477 6.90717773 -16.31938477 6.90717773 -14.73632812 6.91210938 C-13.64771484 6.92048828 -12.55910156 6.92886719 -11.4375 6.9375 C-9.7987793 6.94426758 -9.7987793 6.94426758 -8.12695312 6.95117188 C-5.41791505 6.96300174 -2.70898401 6.97948457 0 7 C0 4.69 0 2.38 0 0 Z " fill="#EEEDED" transform="translate(103,17)"/>
<path d="M0 0 C1.93938819 2.90908228 2.96774957 5.40862379 4.125 8.6875 C4.47820312 9.68136719 4.83140625 10.67523438 5.1953125 11.69921875 C5.46085937 12.45847656 5.72640625 13.21773437 6 14 C2.7 14 -0.6 14 -4 14 C-5.2277183 10.31684509 -4.6026666 9.37044582 -3.125 5.875 C-2.75632812 4.98554687 -2.38765625 4.09609375 -2.0078125 3.1796875 C-1 1 -1 1 0 0 Z " fill="#000000" transform="translate(506,30)"/>
<path d="M0 0 C0.66 0 1.32 0 2 0 C2.09765625 6.15234375 2.09765625 6.15234375 2 8 C1 9 1 9 -0.79296875 9.1328125 C-8.22390719 9.108568 -15.59491516 8.59752846 -23 8 C-23 7.67 -23 7.34 -23 7 C-15.41 7 -7.82 7 0 7 C0 4.69 0 2.38 0 0 Z " fill="#F3F3F3" transform="translate(103,17)"/>
<path d="M0 0 C-0.845625 0.515625 -1.69125 1.03125 -2.5625 1.5625 C-6.54229113 4.19353136 -9.72851673 7.55429572 -13 11 C-13.33 10.34 -13.66 9.68 -14 9 C-12.92492371 7.70145279 -11.83956264 6.41141639 -10.75 5.125 C-10.14671875 4.40570312 -9.5434375 3.68640625 -8.921875 2.9453125 C-5.84425172 -0.16984278 -4.27321809 -1.42440603 0 0 Z " fill="#F0F0EF" transform="translate(365,18)"/>
<path d="M0 0 C1 3 1 3 1 5 C4.63 5 8.26 5 12 5 C12 5.66 12 6.32 12 7 C7.38 7 2.76 7 -2 7 C-1.34 4.69 -0.68 2.38 0 0 Z " fill="#EDEDEC" transform="translate(501,38)"/>
</svg>
