<?xml version="1.0" encoding="UTF-8"?>
<svg version="1.1" xmlns="http://www.w3.org/2000/svg" width="1100" height="151">
<path d="M0 0 C0.66 0 1.32 0 2 0 C2 0.66 2 1.32 2 2 C3.30195312 1.84660156 4.60390625 1.69320313 5.9453125 1.53515625 C7.67169588 1.37565344 9.39827035 1.21820949 11.125 1.0625 C11.9809375 0.95615234 12.836875 0.84980469 13.71875 0.74023438 C19.98526524 0.23409276 19.98526524 0.23409276 22.81103516 2.36694336 C24.36977812 4.16827215 25.69430377 6.00915928 27 8 C27.70382813 8.90621094 28.40765625 9.81242187 29.1328125 10.74609375 C29.79023437 11.63425781 30.44765625 12.52242187 31.125 13.4375 C31.89328125 14.47132812 32.6615625 15.50515625 33.453125 16.5703125 C34.06704102 17.39837402 34.06704102 17.39837402 34.69335938 18.24316406 C36.57071739 20.7673547 38.46399558 23.27947141 40.35595703 25.79272461 C42.39100305 28.49859663 44.4195063 31.20932145 46.44628906 33.92138672 C47.49924578 35.33007205 48.55331743 36.73792455 49.60839844 38.14501953 C51.16063644 40.21798088 52.70617751 42.29576673 54.25 44.375 C54.72808105 45.01155518 55.20616211 45.64811035 55.69873047 46.30395508 C59 50.77113459 59 50.77113459 59 53 C59.66 53 60.32 53 61 53 C61 36.17 61 19.34 61 2 C64.24161702 1.18959575 66.47340258 0.87171975 69.73046875 0.8671875 C70.61541016 0.86589844 71.50035156 0.86460938 72.41210938 0.86328125 C73.78592773 0.86908203 73.78592773 0.86908203 75.1875 0.875 C76.11498047 0.87113281 77.04246094 0.86726563 77.99804688 0.86328125 C78.87912109 0.86457031 79.76019531 0.86585937 80.66796875 0.8671875 C81.47516357 0.86831543 82.2823584 0.86944336 83.11401367 0.87060547 C85 1 85 1 86 2 C86.09522418 4.86091818 86.12553326 7.69763621 86.11352539 10.55883789 C86.11367142 11.45631241 86.11381744 12.35378693 86.1139679 13.27845764 C86.11326842 16.25988134 86.10547441 19.2412434 86.09765625 22.22265625 C86.09579219 24.28388942 86.09436823 26.34512304 86.09336853 28.40635681 C86.08954237 33.8430401 86.07971126 39.27969686 86.06866455 44.71636963 C86.05845253 50.25947714 86.05387136 55.80258892 86.04882812 61.34570312 C86.03808908 72.23048043 86.02101149 83.11523802 86 94 C81.68230298 95.43923234 77.64036198 95.12203681 73.125 95 C71.77728516 95.00966797 71.77728516 95.00966797 70.40234375 95.01953125 C63.86127648 94.81663256 63.86127648 94.81663256 61.32324219 92.41015625 C59.9921875 90.5 59.9921875 90.5 58.93310547 88.59375 C58.08701087 86.81604266 58.08701087 86.81604266 56 86 C55.06537378 84.3310246 54.13326696 82.66054726 53.21875 80.98046875 C51.50533403 78.1961678 49.38581316 75.87524839 47.171875 73.48046875 C46 72 46 72 46 70 C45.34 70 44.68 70 44 70 C43.46375 69.01 42.9275 68.02 42.375 67 C39.69817991 62.31318332 36.62664187 57.4254623 32.63891602 53.74316406 C30.49694372 51.46494536 28.96580458 48.96402621 27.3125 46.3125 C26.68988281 45.31863281 26.06726563 44.32476562 25.42578125 43.30078125 C24.95527344 42.54152344 24.48476563 41.78226563 24 41 C24.00785522 42.76875488 24.00785522 42.76875488 24.01586914 44.57324219 C24.03414375 49.00145694 24.04551306 53.42966845 24.05493164 57.85791016 C24.05992101 59.7644914 24.06671487 61.67106891 24.07543945 63.57763672 C24.12093838 73.78545541 24.07890783 83.83957662 23 94 C15.41 94 7.82 94 0 94 C-0.1529894 81.89163462 -0.30174941 69.7832379 -0.4429636 57.67472935 C-0.50869892 52.05289146 -0.57632307 46.43108925 -0.64819336 40.80932617 C-0.71742183 35.38886445 -0.78178097 29.96836519 -0.84269524 24.54780388 C-0.8668597 22.47483134 -0.89280953 20.40187886 -0.92053413 18.32895088 C-0.958925 15.43621079 -0.99109344 12.54346588 -1.02172852 9.65063477 C-1.03467453 8.78461136 -1.04762054 7.91858795 -1.06095886 7.02632141 C-1.07899823 5.01752584 -1.0452683 3.00836647 -1 1 C-0.67 0.67 -0.34 0.34 0 0 Z M61 53 C62 55 62 55 62 55 Z " fill="#060606" transform="translate(34,30)"/>
<path d="M0 0 C10.70937255 8.12047018 18.85035596 18.48491126 21 32 C22.33831552 45.956719 18.76070996 57.58940094 10.08984375 68.6015625 C2.0776851 77.79682495 -7.65402767 84.0682285 -20 85 C-20.33 85.66 -20.66 86.32 -21 87 C-41.04988612 86.57655996 -55.47592636 83.42675991 -70 69 C-72.35773448 66.26371129 -73.85523477 64.43429569 -75 61 C-75.66 60.67 -76.32 60.34 -77 60 C-77.88671875 57.3828125 -77.88671875 57.3828125 -78.6875 54.125 C-78.95949219 53.05507812 -79.23148437 51.98515625 -79.51171875 50.8828125 C-80 48 -80 48 -79 45 C-79.66 45 -80.32 45 -81 45 C-80.62592932 29.04588551 -78.48409243 17.5881227 -66.86328125 5.83984375 C-48.82059763 -11.00629191 -20.91468819 -13.22837534 0 0 Z M-49.2734375 21.671875 C-53.77815445 27.74610871 -54.46021696 32.66966332 -53.9375 40 C-53.90978516 40.76828125 -53.88207031 41.5365625 -53.85351562 42.328125 C-53.46757738 48.72056697 -51.63317265 53.02924111 -47.32421875 57.890625 C-41.14952035 63.01901412 -35.61607741 65.56068192 -27.4921875 65.2890625 C-20.57887457 64.48720489 -15.2619896 61.65010167 -10.62109375 56.45703125 C-5.65203996 49.81746935 -5.33926066 41.56783013 -6.29296875 33.53125 C-8.18454171 25.12425907 -12.1539743 19.97058188 -19 15 C-29.88150269 9.67500932 -41.2311971 13.53034768 -49.2734375 21.671875 Z " fill="#141515" transform="translate(490,39)"/>
<path d="M0 0 C5.46750192 4.70287383 9.64172047 9.67302349 13.22265625 15.921875 C13.82078125 16.953125 14.41890625 17.984375 15.03515625 19.046875 C16.39385133 22.33634729 16.8083382 25.40017155 17.22265625 28.921875 C17.55265625 29.251875 17.88265625 29.581875 18.22265625 29.921875 C18.32221634 32.2117571 18.35234345 34.50483437 18.34765625 36.796875 C18.35152344 38.68019531 18.35152344 38.68019531 18.35546875 40.6015625 C18.22265625 43.921875 18.22265625 43.921875 17.22265625 46.921875 C17.08859375 47.52773437 16.95453125 48.13359375 16.81640625 48.7578125 C13.28557953 61.62674672 4.40600389 71.72329838 -6.86328125 78.453125 C-11.65402484 80.86776252 -16.61602561 82.49541858 -21.77734375 83.921875 C-22.38835938 84.12425781 -22.999375 84.32664062 -23.62890625 84.53515625 C-37.54200412 87.03951387 -52.90516307 82.55182279 -64.3203125 74.796875 C-67.77648735 72.15941247 -71.10745583 69.37541603 -73.77734375 65.921875 C-73.77734375 65.261875 -73.77734375 64.601875 -73.77734375 63.921875 C-74.43734375 63.921875 -75.09734375 63.921875 -75.77734375 63.921875 C-83.66587625 47.80183033 -85.19621983 36.2831203 -79.77734375 18.921875 C-75.35220434 6.70115322 -65.11967223 -1.4874028 -53.77734375 -7.078125 C-36.38355317 -14.11621192 -14.86318676 -11.12125929 0 0 Z M-53.1484375 21.5078125 C-56.68310013 26.74623338 -57.10033682 31.62857955 -56.65234375 37.796875 C-56.60158691 38.50505371 -56.55083008 39.21323242 -56.49853516 39.94287109 C-55.82470455 47.46240493 -53.97036708 52.12475447 -48.46484375 57.234375 C-41.96880477 62.28532056 -35.87881817 63.86154445 -27.77734375 62.921875 C-21.27287635 61.35808318 -16.6702643 58.40971343 -12.58984375 53.046875 C-8.61598609 46.19539627 -7.77734375 39.3439927 -7.77734375 31.546875 C-9.73913979 24.43536434 -13.68162498 17.84449159 -19.96484375 13.796875 C-32.36499486 6.87703507 -44.41449392 11.52112146 -53.1484375 21.5078125 Z " fill="#141515" transform="translate(779.77734375,41.078125)"/>
<path d="M0 0 C1.29897217 -0.00217529 2.59794434 -0.00435059 3.9362793 -0.0065918 C5.34554273 -0.00254308 6.75480414 0.00227336 8.1640625 0.0078125 C8.86890778 0.00969574 9.57375305 0.01157898 10.29995728 0.01351929 C54.10254994 0.15152053 54.10254994 0.15152053 65.7890625 11.1328125 C72.62500043 18.82947984 73.97711979 26.03648649 73.7890625 36.1328125 C73.8096875 37.04417969 73.8303125 37.95554688 73.8515625 38.89453125 C73.67155056 46.06125679 70.42784431 50.83269723 65.7890625 56.1328125 C64.69433791 57.12558934 63.57270433 58.0904375 62.4140625 59.0078125 C59.76776688 60.88285145 59.76776688 60.88285145 58.6640625 63.1328125 C58.86081844 66.28090749 60.75022181 67.81079949 62.7890625 70.1328125 C63.81919527 71.78102494 64.82020878 73.44784952 65.7890625 75.1328125 C66.23765625 75.88046875 66.68625 76.628125 67.1484375 77.3984375 C68.93996933 80.38432388 70.71283845 83.38041432 72.4765625 86.3828125 C73.09917969 87.43984375 73.72179687 88.496875 74.36328125 89.5859375 C75.7890625 92.1328125 75.7890625 92.1328125 75.7890625 93.1328125 C66.5490625 93.4628125 57.3090625 93.7928125 47.7890625 94.1328125 C46.4071875 91.5134375 45.0253125 88.8940625 43.6015625 86.1953125 C40.39871297 80.13496216 37.15499678 74.10463138 33.7890625 68.1328125 C29.1690625 68.1328125 24.5490625 68.1328125 19.7890625 68.1328125 C19.7890625 68.7928125 19.7890625 69.4528125 19.7890625 70.1328125 C19.1290625 70.1328125 18.4690625 70.1328125 17.7890625 70.1328125 C17.9334375 70.70128906 18.0778125 71.26976563 18.2265625 71.85546875 C19.96974249 79.10661327 20.37816248 85.76516714 18.7890625 93.1328125 C17.3040625 94.1228125 17.3040625 94.1228125 15.7890625 95.1328125 C15.2940625 94.6378125 15.2940625 94.6378125 14.7890625 94.1328125 C13.2386405 94.05805734 11.68489708 94.04957195 10.1328125 94.0703125 C9.19308594 94.07804687 8.25335937 94.08578125 7.28515625 94.09375 C6.29644531 94.10664062 5.30773437 94.11953125 4.2890625 94.1328125 C2.34119997 94.15820836 0.39327459 94.17927989 -1.5546875 94.1953125 C-2.85696289 94.21271484 -2.85696289 94.21271484 -4.18554688 94.23046875 C-6.2109375 94.1328125 -6.2109375 94.1328125 -7.2109375 93.1328125 C-7.31148863 90.27726669 -7.34709294 87.44587227 -7.34033203 84.58984375 C-7.34208435 83.69397552 -7.34383667 82.7981073 -7.34564209 81.87509155 C-7.35006197 78.89847913 -7.34712214 75.92192558 -7.34375 72.9453125 C-7.344423 70.88647449 -7.34539299 68.82763656 -7.34664917 66.76879883 C-7.34812633 62.44774623 -7.34597101 58.12671427 -7.34130859 53.80566406 C-7.3356113 48.25344704 -7.33889021 42.70127836 -7.34488106 37.14906311 C-7.34848619 32.89587029 -7.34734831 28.64268901 -7.34475327 24.38949585 C-7.34408386 22.34166457 -7.34491288 20.29383227 -7.34723282 18.2460022 C-7.34975856 15.38923342 -7.34591986 12.53254407 -7.34033203 9.67578125 C-7.34235626 8.82067963 -7.34438049 7.965578 -7.34646606 7.08456421 C-7.32066593 0.00251978 -6.96378354 0.00669871 0 0 Z M17.7890625 20.1328125 C18.1190625 21.1228125 18.4490625 22.1128125 18.7890625 23.1328125 C18.85837887 24.56748798 18.87363634 26.00522686 18.8515625 27.44140625 C18.83996094 28.68567383 18.83996094 28.68567383 18.828125 29.95507812 C18.80214167 31.69466233 18.77610026 33.43424567 18.75 35.17382812 C18.74226562 36.00462891 18.73453125 36.83542969 18.7265625 37.69140625 C18.71496094 38.44736084 18.70335937 39.20331543 18.69140625 39.98217773 C18.79027935 42.15961064 19.18718592 44.04312783 19.7890625 46.1328125 C19.1290625 46.1328125 18.4690625 46.1328125 17.7890625 46.1328125 C17.7890625 46.7928125 17.7890625 47.4528125 17.7890625 48.1328125 C20.97638504 48.22078531 24.16339038 48.27352591 27.3515625 48.3203125 C28.24681641 48.34544922 29.14207031 48.37058594 30.06445312 48.39648438 C36.93786341 48.47201636 41.71265955 47.57815843 47.2265625 43.1953125 C49.73324498 38.28221484 49.59893863 33.52469055 48.7890625 28.1328125 C47.56715007 24.92145471 46.70123828 24.34606609 43.7890625 22.1328125 C35.78048092 18.93564882 26.25887753 19.9436603 17.7890625 20.1328125 Z " fill="#080909" transform="translate(616.2109375,30.8671875)"/>
<path d="M0 0 C7.22282011 0.067335 14.44511313 0.15727106 21.66748047 0.26245117 C24.12119264 0.29557451 26.5749787 0.32364506 29.02880859 0.34643555 C32.56900328 0.38021329 36.10852849 0.43254167 39.6484375 0.48828125 C40.73426117 0.49467117 41.82008484 0.5010611 42.93881226 0.50764465 C53.8032089 0.71436067 62.43649972 2.84358511 70.5625 10.375 C71.366875 11.24125 72.17125 12.1075 73 13 C73.886875 13.94875 74.77375 14.8975 75.6875 15.875 C80.8405202 22.83854081 80.62638496 30.64820058 80 39 C78.77657987 46.31995912 75.78710701 51.43226163 71 57 C70.43152344 57.67675781 69.86304688 58.35351562 69.27734375 59.05078125 C67.867386 60.71406475 66.4358561 62.3590216 65 64 C67.02633069 68.32371893 67.02633069 68.32371893 70 72 C71.17441742 73.94132614 72.31621731 75.90250701 73.4375 77.875 C75.89179371 82.19048491 75.89179371 82.19048491 78.72265625 86.2578125 C80 88 80 88 80 90 C81.485 90.495 81.485 90.495 83 91 C82.01 92.98 82.01 92.98 81 95 C80.16795044 94.74488647 80.16795044 94.74488647 79.3190918 94.48461914 C76.7074876 93.93887387 74.55303607 94.05037709 71.89453125 94.24609375 C56.4224422 94.897443 56.4224422 94.897443 52.12548828 91.53173828 C49.12715499 87.76608744 47.38033736 83.47675639 45.74951172 78.98046875 C44.74404037 76.32366628 43.38107048 73.94115984 41.9375 71.5 C41.298125 70.345 40.65875 69.19 40 68 C35.05 68 30.1 68 25 68 C24.67 76.25 24.34 84.5 24 93 C20.99984088 94.00005304 19.02576244 94.11575585 15.89453125 94.09765625 C14.91162109 94.09443359 13.92871094 94.09121094 12.91601562 94.08789062 C11.89185547 94.07951172 10.86769531 94.07113281 9.8125 94.0625 C8.77673828 94.05798828 7.74097656 94.05347656 6.67382812 94.04882812 C4.11582734 94.0370401 1.55794267 94.02058515 -1 94 C-1.79348818 73.77238237 -2.12723704 53.55037655 -2.17724609 33.30740356 C-2.18408362 30.81021984 -2.19433915 28.31304313 -2.20800781 25.81588745 C-2.22587682 22.27432586 -2.23016674 18.73300769 -2.23046875 15.19140625 C-2.23761398 14.1199234 -2.24475922 13.04844055 -2.25212097 11.94448853 C-2.24908463 10.95548553 -2.24604828 9.96648254 -2.24291992 8.94750977 C-2.24434494 8.08489029 -2.24576996 7.22227081 -2.24723816 6.33351135 C-1.98003148 3.81153081 -1.26822504 2.17734792 0 0 Z M24 20 C25 22 25 22 25 22 Z M26 20 C23.70244078 23.44633882 23.76356024 24.71068391 23.8046875 28.76171875 C23.81113281 29.87998047 23.81757813 30.99824219 23.82421875 32.15039062 C23.84097656 33.31763672 23.85773438 34.48488281 23.875 35.6875 C23.88402344 36.86634766 23.89304687 38.04519531 23.90234375 39.25976562 C23.92593577 42.17338026 23.9588546 45.08658892 24 48 C27.18732254 48.08797281 30.37432788 48.14071341 33.5625 48.1875 C34.45775391 48.21263672 35.35300781 48.23777344 36.27539062 48.26367188 C43.19446262 48.33970563 48.28552982 47.64486838 53.4375 42.625 C55.17524078 39.7055955 55.26229379 38.32238799 55 35 C55.33 34.01 55.66 33.02 56 32 C54.23717026 26.29672731 52.43149976 23.88202028 47 21 C42.80604467 19.72628806 38.72391143 19.77918733 34.375 19.75 C33.59898437 19.729375 32.82296875 19.70875 32.0234375 19.6875 C29.51577246 19.63500433 29.51577246 19.63500433 26 20 Z M63 62 C64 64 64 64 64 64 Z " fill="#121213" transform="translate(323,31)"/>
<path d="M0 0 C0.69104324 -0.00175232 1.38208649 -0.00350464 2.09407043 -0.00531006 C4.3889107 -0.00972801 6.68367451 -0.0067908 8.97851562 -0.00341797 C10.56652847 -0.00409102 12.15454122 -0.00506106 13.74255371 -0.00631714 C17.07496112 -0.00779403 20.40734178 -0.00563983 23.73974609 -0.00097656 C28.02075073 0.00472073 32.30169268 0.00144168 36.58269501 -0.00454903 C39.86310299 -0.00815487 43.143496 -0.00701595 46.42390442 -0.00442123 C48.00283312 -0.00375203 49.58176317 -0.00458017 51.16069031 -0.00690079 C53.36367415 -0.0094277 55.56655511 -0.00558622 57.76953125 0 C59.65363708 0.00119339 59.65363708 0.00119339 61.57580566 0.00241089 C64.38476562 0.12939453 64.38476562 0.12939453 65.38476562 1.12939453 C65.47128173 2.54509576 65.49181466 3.96498954 65.48242188 5.38330078 C65.47758789 6.66430664 65.47758789 6.66430664 65.47265625 7.97119141 C65.46008789 9.31793945 65.46008789 9.31793945 65.44726562 10.69189453 C65.44275391 11.59359375 65.43824219 12.49529297 65.43359375 13.42431641 C65.42176787 15.65940767 65.40528783 17.8943689 65.38476562 20.12939453 C60.44486088 21.42606344 55.55639433 21.25563503 50.49023438 21.22705078 C49.54287918 21.22563583 48.59552399 21.22422089 47.61946106 21.22276306 C44.60369668 21.21718065 41.58800744 21.20463135 38.57226562 21.19189453 C36.52343857 21.18687726 34.47461036 21.18231475 32.42578125 21.17822266 C27.41208057 21.16721697 22.39843582 21.14996441 17.38476562 21.12939453 C17.38476562 26.40939453 17.38476562 31.68939453 17.38476562 37.12939453 C18.6518335 37.09386475 19.91890137 37.05833496 21.22436523 37.02172852 C25.90750358 36.89175004 30.59079777 36.76845316 35.27416992 36.6472168 C37.30449258 36.5937145 39.33476777 36.53837907 41.36499023 36.48120117 C44.27642577 36.39951903 47.18796615 36.32434452 50.09960938 36.25048828 C51.01314682 36.22345322 51.92668427 36.19641815 52.86790466 36.16856384 C55.03961065 36.11665682 57.21247195 36.11750217 59.38476562 36.12939453 C60.38476562 37.12939453 60.38476562 37.12939453 60.49829102 39.1706543 C60.49043579 40.48247681 60.49043579 40.48247681 60.48242188 41.82080078 C60.47758789 43.2371582 60.47758789 43.2371582 60.47265625 44.68212891 C60.46008789 46.17196289 60.46008789 46.17196289 60.44726562 47.69189453 C60.44275391 48.68898437 60.43824219 49.68607422 60.43359375 50.71337891 C60.42176569 53.18544302 60.40528412 55.65738971 60.38476562 58.12939453 C59.06476563 58.45939453 57.74476563 58.78939453 56.38476562 59.12939453 C56.38476562 58.46939453 56.38476562 57.80939453 56.38476562 57.12939453 C43.51476562 57.12939453 30.64476562 57.12939453 17.38476562 57.12939453 C17.38476562 62.40939453 17.38476562 67.68939453 17.38476562 73.12939453 C33.55476563 72.79939453 49.72476563 72.46939453 66.38476562 72.12939453 C67.19659303 75.37670415 67.47996234 77.06650941 67.26367188 80.23876953 C67.19116211 81.36992187 67.19116211 81.36992187 67.1171875 82.52392578 C67.06111328 83.30123047 67.00503906 84.07853516 66.94726562 84.87939453 C66.89505859 85.67216797 66.84285156 86.46494141 66.7890625 87.28173828 C66.65987239 89.2313345 66.52306598 91.18042339 66.38476562 93.12939453 C62.88194186 94.29700245 60.22244979 94.20999481 56.52661133 94.15112305 C55.83366974 94.1415155 55.14072815 94.13190796 54.42678833 94.12200928 C52.13793694 94.08904622 49.84927803 94.04870378 47.56054688 94.00830078 C45.97300392 93.98399702 44.38545385 93.96015359 42.79789734 93.93675232 C38.62047221 93.87393681 34.44317301 93.80486299 30.26586914 93.73449707 C26.00282524 93.66379075 21.73969209 93.59898754 17.4765625 93.53369141 C9.11253138 93.40471171 0.74862406 93.26912213 -7.61523438 93.12939453 C-7.63835628 81.15135894 -7.65614868 69.17332863 -7.66704655 57.19527531 C-7.67227571 51.63400042 -7.67937396 46.07274074 -7.69067383 40.51147461 C-7.70150153 35.14932034 -7.70751096 29.78718075 -7.71011162 24.4250164 C-7.71196608 22.37439175 -7.71558709 20.32376794 -7.72096443 18.27314949 C-7.7281733 15.4114925 -7.72922538 12.54989696 -7.72875977 9.68823242 C-7.73235504 8.83155975 -7.73595032 7.97488708 -7.73965454 7.09225464 C-7.72667606 -0.22917841 -7.17744797 0.00454619 0 0 Z " fill="#010101" transform="translate(143.615234375,30.87060546875)"/>
<path d="M0 0 C0.00879936 0.93388802 0.00879936 0.93388802 0.01777649 1.88664246 C0.08220988 8.42560822 0.16675183 14.9641043 0.26245117 21.50268555 C0.29550007 23.93589038 0.32359285 26.36916819 0.34643555 28.80249023 C0.38035241 32.32046319 0.43268453 35.83777926 0.48828125 39.35546875 C0.49467117 40.42580856 0.5010611 41.49614838 0.50764465 42.59892273 C0.65463213 56.31008164 0.65463213 56.31008164 6.375 68.25 C9.2114903 70.14099353 10.62011056 70.76955299 14 71 C14.69480469 71.05027344 15.38960938 71.10054688 16.10546875 71.15234375 C21.18056621 71.36486877 24.66881555 70.92103138 29 68 C33.74339232 63.12840789 34.12812905 58.78620037 34.11352539 52.19995117 C34.11344986 51.05914597 34.11337433 49.91834076 34.11329651 48.7429657 C34.10813522 47.52196671 34.10297394 46.30096771 34.09765625 45.04296875 C34.0962413 43.78486893 34.09482635 42.5267691 34.09336853 41.23054504 C34.08872573 37.89821471 34.07975228 34.56595368 34.06866455 31.23364258 C34.05840503 27.82829383 34.05386121 24.4229379 34.04882812 21.01757812 C34.0378083 14.34503302 34.021077 7.67252051 34 1 C37.19728762 -0.70006954 39.30666434 -1.24802572 42.94921875 -1.23046875 C43.87927734 -1.22853516 44.80933594 -1.22660156 45.76757812 -1.22460938 C46.73115234 -1.21236328 47.69472656 -1.20011719 48.6875 -1.1875 C49.66267578 -1.18685547 50.63785156 -1.18621094 51.64257812 -1.18554688 C58.85965402 -1.14034598 58.85965402 -1.14034598 60 0 C60.11492583 1.86890016 60.15966267 3.7421518 60.17700195 5.61450195 C60.19625481 7.41822014 60.19625481 7.41822014 60.21589661 9.25837708 C60.22328354 10.57174545 60.23067047 11.88511383 60.23828125 13.23828125 C60.24235678 13.90640524 60.2464323 14.57452923 60.25063133 15.2628994 C60.27153617 18.81043567 60.28580935 22.35793295 60.29516602 25.90551758 C60.30614093 29.54224289 60.34042164 33.17834101 60.38033772 36.81484699 C60.40672946 39.63161713 60.41487836 42.44824434 60.41844749 45.26512718 C60.42559078 47.24791112 60.45195066 49.23059654 60.47883606 51.21321106 C60.45224079 62.45971344 58.39106961 72.28105905 50.98828125 81.03125 C40.52567308 91.39108206 28.67126726 93.26442469 14.54370117 93.24658203 C0.85603061 93.06402974 -8.19779293 88.16820848 -17.78515625 78.515625 C-19 77 -19 77 -19 75 C-19.66 75 -20.32 75 -21 75 C-23.25684543 69.63999211 -24.36263859 65.8022175 -24 60 C-24.66 60 -25.32 60 -26 60 C-25.505 30.3 -25.505 30.3 -25 0 C-5 -1 -5 -1 0 0 Z " fill="#111111" transform="translate(247,32)"/>
<path d="M0 0 C0.99 0.33 1.98 0.66 3 1 C4.70016844 1.08178114 6.40336297 1.10749501 8.10546875 1.09765625 C9.57983398 1.09282227 9.57983398 1.09282227 11.08398438 1.08789062 C12.10814453 1.07951172 13.13230469 1.07113281 14.1875 1.0625 C15.22326172 1.05798828 16.25902344 1.05347656 17.32617188 1.04882812 C19.88417266 1.0370401 22.44205733 1.02058515 25 1 C27.85457361 7.17752813 30.59534242 13.36702306 33.08984375 19.69921875 C34.94148925 25.23900737 34.94148925 25.23900737 38 30 C38.04063832 31.66617115 38.042721 33.33388095 38 35 C38.66 35 39.32 35 40 35 C40.36351562 36.00417969 40.72703125 37.00835937 41.1015625 38.04296875 C43.92704971 45.76084022 46.95883235 53.25993344 50.484375 60.69140625 C53.23428092 66.69442251 55.59332351 72.85282632 58 79 C59.14330254 81.89998272 60.33026472 84.72404189 61.625 87.5625 C63 91 63 91 63 95 C61.35 94.67 59.7 94.34 58 94 C57.67 94.66 57.34 95.32 57 96 C57 95.34 57 94.68 57 94 C54.8537974 94.14029419 52.70803782 94.28738164 50.5625 94.4375 C49.36753906 94.51871094 48.17257812 94.59992188 46.94140625 94.68359375 C44.11429756 94.67656114 44.11429756 94.67656114 43 96 C40.5625 96.1875 40.5625 96.1875 38 96 C35.38056097 93.38056097 34.55802162 90.42526027 33.375 87 C33.14554688 86.35804687 32.91609375 85.71609375 32.6796875 85.0546875 C31 80.27557664 31 80.27557664 31 78 C18.13 78 5.26 78 -8 78 C-9.98 82.95 -11.96 87.9 -14 93 C-16.09570947 95.09570947 -20.5284417 94.37238899 -23.4375 94.5 C-28.88504143 94.50937661 -28.88504143 94.50937661 -34 96 C-35.99960012 96.039992 -38.00047242 96.04346799 -40 96 C-40.495 93.03 -40.495 93.03 -41 90 C-40.01 90 -39.02 90 -38 90 C-37.88398437 89.3090625 -37.76796875 88.618125 -37.6484375 87.90625 C-36.9164349 84.62546728 -35.83402096 81.63612709 -34.625 78.5 C-34.20476563 77.3965625 -33.78453125 76.293125 -33.3515625 75.15625 C-32.10314581 72.2408723 -30.63199114 69.70988449 -29 67 C-28.22894294 65.14183423 -27.50301759 63.26457521 -26.8125 61.375 C-21.79363672 48.0562852 -16.06521432 35.04631105 -10.16088867 22.09985352 C-7.51367552 16.25602751 -5.13901677 10.37689982 -2.97265625 4.3359375 C-2 2 -2 2 0 0 Z M11 28 C9.52586354 31.41016902 8.05817331 34.8228438 6.60546875 38.2421875 C5.65111496 40.48845881 4.67675856 42.71895 3.67578125 44.9453125 C3.30839844 45.78835937 2.94101562 46.63140625 2.5625 47.5 C2.23378906 48.2321875 1.90507813 48.964375 1.56640625 49.71875 C0.69130121 52.59749738 0.69130121 52.59749738 2 58 C8.93 58 15.86 58 23 58 C20.38382396 50.64642409 17.76816603 43.29789225 15 36 C14.43693132 34.50021338 13.87442711 33.00021471 13.3125 31.5 C12.6628125 29.7675 12.6628125 29.7675 12 28 C11.67 28 11.34 28 11 28 Z " fill="#101011" transform="translate(1001,30)"/>
<path d="M0 0 C0.95703125 1.88671875 0.95703125 1.88671875 1 4 C0.07421875 6.33203125 0.07421875 6.33203125 -1.3125 8.8125 C-3.47316236 12.86374192 -4.9345519 16.54448977 -6 21 C-9.81508547 20.23698291 -13.15061428 18.65390403 -16.6875 17.0625 C-26.16556077 12.92113546 -35.72511936 10.11379757 -46 13 C-45.97350778 16.3634269 -45.97350778 16.3634269 -45 20 C-40.05763047 24.18886073 -34.38759246 25.65013355 -28.25 27.4375 C-7.96735537 33.35791481 -7.96735537 33.35791481 -3 41 C-2.33355469 41.7425 -1.66710937 42.485 -0.98046875 43.25 C1.31503632 46.43744688 1.79275485 48.63128829 2.3125 52.5 C2.47363281 53.6034375 2.63476562 54.706875 2.80078125 55.84375 C3.25575132 63.05190322 0.37105123 67.50093554 -4 73 C-7.58868638 76.64379097 -11.2312748 80.01781904 -16 82 C-16.99 82 -17.98 82 -19 82 C-19 82.66 -19 83.32 -19 84 C-21.85366354 84.33821197 -24.70780596 84.6706978 -27.5625 85 C-28.36236328 85.09539062 -29.16222656 85.19078125 -29.98632812 85.2890625 C-37.10241942 86.10233008 -43.18305597 86.53964582 -50 84 C-51.04220703 83.72542969 -51.04220703 83.72542969 -52.10546875 83.4453125 C-61.19520219 81.04313172 -70.64916046 76.93860929 -78 71 C-77.38367054 66.04001528 -75.20164371 62.06328034 -72.9375 57.6875 C-72.56044922 56.94693359 -72.18339844 56.20636719 -71.79492188 55.44335938 C-70.86871843 53.62612478 -69.93509371 51.81267596 -69 50 C-67.68 50.66 -66.36 51.32 -65 52 C-65 52.66 -65 53.32 -65 54 C-64.29875 54.268125 -63.5975 54.53625 -62.875 54.8125 C-60 56 -60 56 -57.375 57.375 C-48.54049077 61.62865259 -39.93038339 64.9413307 -30.0625 63.375 C-26.8919503 62.26483863 -26.8919503 62.26483863 -25.375 59.6875 C-24.8044545 56.96945553 -24.8044545 56.96945553 -25.8125 54.3125 C-29.00680456 50.93566375 -32.51402809 50.63010507 -37 50 C-37 49.34 -37 48.68 -37 48 C-38.49853516 47.81824219 -38.49853516 47.81824219 -40.02734375 47.6328125 C-41.31769531 47.46523437 -42.60804688 47.29765625 -43.9375 47.125 C-45.22527344 46.96257812 -46.51304687 46.80015625 -47.83984375 46.6328125 C-48.88269531 46.42398438 -49.92554688 46.21515625 -51 46 C-51.33 45.34 -51.66 44.68 -52 44 C-53.87111871 43.03388583 -55.7726194 42.12618153 -57.6875 41.25 C-64.48741112 37.89849986 -69.0663381 35.02011639 -71.875 27.8125 C-73.91709031 20.48065769 -74.12500725 13.69370405 -70.9375 6.6875 C-65.3934212 -2.99166519 -57.53493787 -6.04880647 -47 -9 C-31.58255034 -11.61930865 -12.98218848 -9.54572682 0 0 Z " fill="#141515" transform="translate(879,40)"/>
<path d="M0 0 C0.85586197 0.01093689 1.71172394 0.02187378 2.59352112 0.03314209 C3.56220627 0.0435553 4.53089142 0.05396851 5.52893066 0.06469727 C6.5860878 0.08232117 7.64324493 0.09994507 8.73243713 0.11810303 C9.8171077 0.134599 10.90177826 0.15109497 12.01931763 0.16809082 C14.32535062 0.20569205 16.63133695 0.24625048 18.93727112 0.28948975 C22.43990197 0.35165379 25.94239479 0.39345832 29.44532776 0.43450928 C31.68688664 0.47360886 33.92842451 0.51393581 36.16993713 0.55560303 C37.20887619 0.56513 38.24781525 0.57465698 39.3182373 0.58447266 C50.57112078 0.84430016 61.26371711 3.77185782 69.68165588 11.62591553 C75.852245 19.20059079 76.760328 30.24025736 76.52149963 39.63763428 C75.31740259 48.46436219 70.89026552 55.24569309 63.97853088 60.70013428 C63.34173401 61.16290771 62.70493713 61.62568115 62.04884338 62.10247803 C61.14198792 62.8836499 61.14198792 62.8836499 60.21681213 63.68060303 C50.45030379 70.08602472 35.16370249 68.42551484 24.04884338 68.10247803 C24.05915588 68.74717041 24.06946838 69.39186279 24.08009338 70.05609131 C24.18932141 78.08264484 24.0914703 86.30373469 22.04884338 94.10247803 C18.42386005 94.13141734 14.79890625 94.14925595 11.17384338 94.16497803 C9.62503479 94.17754639 9.62503479 94.17754639 8.04493713 94.19036865 C7.05880432 94.19359131 6.07267151 94.19681396 5.05665588 94.20013428 C4.14544983 94.20537109 3.23424377 94.21060791 2.29542542 94.21600342 C0.04884338 94.10247803 0.04884338 94.10247803 -1.95115662 93.10247803 C-2.08302466 83.76496947 -2.21350483 74.42744277 -2.34230804 65.08989143 C-2.40218536 60.75211782 -2.46250582 56.4143514 -2.52391052 52.07659912 C-2.58337046 47.8749932 -2.64157306 43.67337143 -2.69897461 39.47173691 C-2.72086606 37.88452429 -2.74317862 36.29731742 -2.76596069 34.71011734 C-2.84045298 29.50766458 -2.90256924 24.30523743 -2.95115662 19.10247803 C-2.95948517 18.27359825 -2.96781372 17.44471848 -2.97639465 16.59072113 C-2.99921469 14.07494664 -3.01442259 11.55923896 -3.02732849 9.043396 C-3.03488411 8.26248156 -3.04243973 7.48156712 -3.0502243 6.6769886 C-3.05560122 4.81853278 -3.00864016 2.96005241 -2.95115662 1.10247803 C-1.95115662 0.10247803 -1.95115662 0.10247803 0 0 Z M23.04884338 21.10247803 C22.85301755 25.41464284 22.66857264 29.72721893 22.48634338 34.03997803 C22.43026917 35.27167725 22.37419495 36.50337646 22.31642151 37.7723999 C22.26808167 38.94222412 22.21974182 40.11204834 22.16993713 41.31732178 C22.12280579 42.40134277 22.07567444 43.48536377 22.02711487 44.60223389 C21.75622397 47.04350366 21.75622397 47.04350366 23.04884338 48.10247803 C25.78994064 48.23017812 28.49470335 48.28769902 31.23634338 48.28997803 C32.37039612 48.30834717 32.37039612 48.30834717 33.52735901 48.3270874 C39.47322662 48.342558 44.03449345 47.66919464 48.86134338 43.91497803 C51.98702749 39.89624131 52.26820167 36.80332693 51.86134338 31.79388428 C51.20560082 27.63401742 50.5569114 25.59815414 47.48634338 22.60247803 C41.10348997 19.8172329 29.48318963 17.88530491 23.04884338 21.10247803 Z " fill="#070708" transform="translate(522.9511566162109,30.89752197265625)"/>
<path d="M0 0 C10.28304538 -0.02312376 20.56608462 -0.04091525 30.84915066 -0.05181217 C35.6234828 -0.05704093 40.39779721 -0.06413844 45.17211914 -0.07543945 C49.77566262 -0.0862686 54.37918899 -0.09227689 58.98274422 -0.09487724 C60.74309623 -0.09673144 62.50344726 -0.10035196 64.26379204 -0.10573006 C66.72072277 -0.11294086 69.17758195 -0.11399093 71.63452148 -0.11352539 C72.73719109 -0.1189183 72.73719109 -0.1189183 73.86213684 -0.12442017 C78.88594784 -0.11405216 78.88594784 -0.11405216 80 1 C80.06035782 4.1272895 80.0204342 7.23868296 79.9609375 10.36523438 C79.92141216 13.73476943 79.94046159 16.77999656 81 20 C77.45233334 22.36511111 76.1927218 22.18013277 72.01953125 21.9765625 C70.85615234 21.925 69.69277344 21.8734375 68.49414062 21.8203125 C66.67172852 21.72363281 66.67172852 21.72363281 64.8125 21.625 C63.58595703 21.56828125 62.35941406 21.5115625 61.09570312 21.453125 C58.06322112 21.31153051 55.03155194 21.16010492 52 21 C52.01252808 21.56280167 52.02505615 22.12560333 52.03796387 22.70545959 C52.17076498 28.69411984 52.29994502 34.68285124 52.42724609 40.67163086 C52.47486559 42.89105102 52.52333483 45.11045316 52.57275391 47.32983398 C52.91103038 62.55572693 53.07109447 77.77033352 53 93 C49.04284803 93.25405147 45.0845315 93.47401788 41.125 93.6875 C39.99707031 93.76033203 38.86914062 93.83316406 37.70703125 93.90820312 C36.63066406 93.96298828 35.55429687 94.01777344 34.4453125 94.07421875 C33.45031738 94.13182373 32.45532227 94.18942871 31.43017578 94.2487793 C30.62821777 94.16668213 29.82625977 94.08458496 29 94 C26.58432757 90.37649135 26.72832285 88.64154055 26.68115234 84.32543945 C26.67110672 83.652005 26.6610611 82.97857056 26.65071106 82.284729 C26.61984396 80.06092169 26.60283449 77.83723496 26.5859375 75.61328125 C26.56722865 74.07056132 26.54765544 72.52785165 26.5272522 70.9851532 C26.47589494 66.92623948 26.43628857 62.86729258 26.39910889 58.80822754 C26.35909169 54.66568772 26.30798895 50.52328639 26.2578125 46.38085938 C26.16101069 38.25400081 26.07661965 30.12707378 26 22 C25.2479126 21.97494385 24.4958252 21.9498877 23.72094727 21.92407227 C20.33460804 21.80849486 16.94857387 21.68559655 13.5625 21.5625 C12.37849609 21.52318359 11.19449219 21.48386719 9.97460938 21.44335938 C8.84990234 21.40146484 7.72519531 21.35957031 6.56640625 21.31640625 C5.52427979 21.27974854 4.48215332 21.24309082 3.40844727 21.20532227 C1 21 1 21 0 20 C-0.08669432 18.5112814 -0.10703494 17.018555 -0.09765625 15.52734375 C-0.09443359 14.62822266 -0.09121094 13.72910156 -0.08789062 12.80273438 C-0.07951172 11.85720703 -0.07113281 10.91167969 -0.0625 9.9375 C-0.05798828 8.98810547 -0.05347656 8.03871094 -0.04882812 7.06054688 C-0.0370011 4.70696935 -0.02052025 2.35351523 0 0 Z " fill="#161616" transform="translate(883,31)"/>
<path d="M0 0 C0.69104324 -0.00175232 1.38208649 -0.00350464 2.09407043 -0.00531006 C4.3889107 -0.00972801 6.68367451 -0.0067908 8.97851562 -0.00341797 C10.56652847 -0.00409102 12.15454122 -0.00506106 13.74255371 -0.00631714 C17.07496112 -0.00779403 20.40734178 -0.00563983 23.73974609 -0.00097656 C28.02075073 0.00472073 32.30169268 0.00144168 36.58269501 -0.00454903 C39.86310299 -0.00815487 43.143496 -0.00701595 46.42390442 -0.00442123 C48.00283312 -0.00375203 49.58176317 -0.00458017 51.16069031 -0.00690079 C53.36367415 -0.0094277 55.56655511 -0.00558622 57.76953125 0 C59.65363708 0.00119339 59.65363708 0.00119339 61.57580566 0.00241089 C64.38476562 0.12939453 64.38476562 0.12939453 65.38476562 1.12939453 C65.47128173 2.54509576 65.49181466 3.96498954 65.48242188 5.38330078 C65.47758789 6.66430664 65.47758789 6.66430664 65.47265625 7.97119141 C65.46008789 9.31793945 65.46008789 9.31793945 65.44726562 10.69189453 C65.44275391 11.59359375 65.43824219 12.49529297 65.43359375 13.42431641 C65.42176787 15.65940767 65.40528783 17.8943689 65.38476562 20.12939453 C60.38255166 21.45202933 55.40330601 21.25532931 50.27148438 21.22705078 C49.30193314 21.22563583 48.3323819 21.22422089 47.33345032 21.22276306 C44.24635696 21.21717966 41.15933695 21.20463017 38.07226562 21.19189453 C35.97526147 21.18687739 33.87825617 21.18231485 31.78125 21.17822266 C26.64906041 21.16721565 21.51692544 21.14996241 16.38476562 21.12939453 C16.38476562 20.46939453 16.38476562 19.80939453 16.38476562 19.12939453 C32.22476563 19.12939453 48.06476563 19.12939453 64.38476562 19.12939453 C64.38476562 13.51939453 64.38476562 7.90939453 64.38476562 2.12939453 C40.95476562 2.12939453 17.52476562 2.12939453 -6.61523438 2.12939453 C-6.61523438 31.82939453 -6.61523438 61.52939453 -6.61523438 92.12939453 C17.14476562 92.12939453 40.90476563 92.12939453 65.38476562 92.12939453 C65.38476562 86.18939453 65.38476562 80.24939453 65.38476562 74.12939453 C49.21476562 74.12939453 33.04476562 74.12939453 16.38476562 74.12939453 C16.38476562 68.18939453 16.38476562 62.24939453 16.38476562 56.12939453 C30.57476562 56.12939453 44.76476562 56.12939453 59.38476562 56.12939453 C59.38476562 50.18939453 59.38476562 44.24939453 59.38476562 38.12939453 C45.19476563 38.12939453 31.00476563 38.12939453 16.38476562 38.12939453 C16.38476562 32.84939453 16.38476562 27.56939453 16.38476562 22.12939453 C16.71476562 22.12939453 17.04476562 22.12939453 17.38476562 22.12939453 C17.38476562 27.07939453 17.38476562 32.02939453 17.38476562 37.12939453 C18.6518335 37.09386475 19.91890137 37.05833496 21.22436523 37.02172852 C25.90750358 36.89175004 30.59079777 36.76845316 35.27416992 36.6472168 C37.30449258 36.5937145 39.33476777 36.53837907 41.36499023 36.48120117 C44.27642577 36.39951903 47.18796615 36.32434452 50.09960938 36.25048828 C51.01314682 36.22345322 51.92668427 36.19641815 52.86790466 36.16856384 C55.03961065 36.11665682 57.21247195 36.11750217 59.38476562 36.12939453 C60.38476562 37.12939453 60.38476562 37.12939453 60.49829102 39.1706543 C60.49043579 40.48247681 60.49043579 40.48247681 60.48242188 41.82080078 C60.47758789 43.2371582 60.47758789 43.2371582 60.47265625 44.68212891 C60.46008789 46.17196289 60.46008789 46.17196289 60.44726562 47.69189453 C60.44275391 48.68898437 60.43824219 49.68607422 60.43359375 50.71337891 C60.42176569 53.18544302 60.40528412 55.65738971 60.38476562 58.12939453 C59.06476563 58.45939453 57.74476563 58.78939453 56.38476562 59.12939453 C56.38476562 58.46939453 56.38476562 57.80939453 56.38476562 57.12939453 C43.51476562 57.12939453 30.64476562 57.12939453 17.38476562 57.12939453 C17.38476562 62.40939453 17.38476562 67.68939453 17.38476562 73.12939453 C33.55476563 72.79939453 49.72476563 72.46939453 66.38476562 72.12939453 C67.19659303 75.37670415 67.47996234 77.06650941 67.26367188 80.23876953 C67.19116211 81.36992187 67.19116211 81.36992187 67.1171875 82.52392578 C67.06111328 83.30123047 67.00503906 84.07853516 66.94726562 84.87939453 C66.89505859 85.67216797 66.84285156 86.46494141 66.7890625 87.28173828 C66.65987239 89.2313345 66.52306598 91.18042339 66.38476562 93.12939453 C62.88194186 94.29700245 60.22244979 94.20999481 56.52661133 94.15112305 C55.83366974 94.1415155 55.14072815 94.13190796 54.42678833 94.12200928 C52.13793694 94.08904622 49.84927803 94.04870378 47.56054688 94.00830078 C45.97300392 93.98399702 44.38545385 93.96015359 42.79789734 93.93675232 C38.62047221 93.87393681 34.44317301 93.80486299 30.26586914 93.73449707 C26.00282524 93.66379075 21.73969209 93.59898754 17.4765625 93.53369141 C9.11253138 93.40471171 0.74862406 93.26912213 -7.61523438 93.12939453 C-7.63835628 81.15135894 -7.65614868 69.17332863 -7.66704655 57.19527531 C-7.67227571 51.63400042 -7.67937396 46.07274074 -7.69067383 40.51147461 C-7.70150153 35.14932034 -7.70751096 29.78718075 -7.71011162 24.4250164 C-7.71196608 22.37439175 -7.71558709 20.32376794 -7.72096443 18.27314949 C-7.7281733 15.4114925 -7.72922538 12.54989696 -7.72875977 9.68823242 C-7.73235504 8.83155975 -7.73595032 7.97488708 -7.73965454 7.09225464 C-7.72667606 -0.22917841 -7.17744797 0.00454619 0 0 Z " fill="#909192" transform="translate(143.615234375,30.87060546875)"/>
<path d="M0 0 C1.02996094 -0.00128906 2.05992188 -0.00257812 3.12109375 -0.00390625 C4.74724609 0.00189453 4.74724609 0.00189453 6.40625 0.0078125 C7.49035156 0.00394531 8.57445313 0.00007813 9.69140625 -0.00390625 C10.72136719 -0.00261719 11.75132813 -0.00132813 12.8125 0 C14.24045898 0.00169189 14.24045898 0.00169189 15.69726562 0.00341797 C17.90625 0.1328125 17.90625 0.1328125 18.90625 1.1328125 C19.00147418 3.99373068 19.03178326 6.83044871 19.01977539 9.69165039 C19.01992142 10.58912491 19.02006744 11.48659943 19.0202179 12.41127014 C19.01951842 15.39269384 19.01172441 18.3740559 19.00390625 21.35546875 C19.00204219 23.41670192 19.00061823 25.47793554 18.99961853 27.53916931 C18.99579237 32.9758526 18.98596126 38.41250936 18.97491455 43.84918213 C18.96470253 49.39228964 18.96012136 54.93540142 18.95507812 60.47851562 C18.94433908 71.36329293 18.92726149 82.24805052 18.90625 93.1328125 C15.92754623 94.12571376 14.31442115 94.18805798 11.23828125 94.01171875 C9.89926758 93.93920898 9.89926758 93.93920898 8.53320312 93.86523438 C7.60443359 93.80916016 6.67566406 93.75308594 5.71875 93.6953125 C4.77837891 93.64310547 3.83800781 93.59089844 2.86914062 93.53710938 C0.54783499 93.40749332 -1.77303409 93.27253069 -4.09375 93.1328125 C-4.09375 92.8028125 -4.09375 92.4728125 -4.09375 92.1328125 C2.83625 92.1328125 9.76625 92.1328125 16.90625 92.1328125 C16.90625 62.4328125 16.90625 32.7328125 16.90625 2.1328125 C9.97625 2.1328125 3.04625 2.1328125 -4.09375 2.1328125 C-4.09375 20.2828125 -4.09375 38.4328125 -4.09375 57.1328125 C-4.75375 56.8028125 -5.41375 56.4728125 -6.09375 56.1328125 C-6.11901563 48.31828498 -6.13658105 40.50376792 -6.14868164 32.68920898 C-6.15372383 30.02839769 -6.16055736 27.36758918 -6.16918945 24.70678711 C-6.18126009 20.89175734 -6.18697929 17.07676406 -6.19140625 13.26171875 C-6.19656754 12.06382217 -6.20172882 10.8659256 -6.20704651 9.63172913 C-6.20712204 8.5306633 -6.20719757 7.42959747 -6.20727539 6.29516602 C-6.209496 5.32031754 -6.21171661 4.34546906 -6.21400452 3.34107971 C-5.98524827 -0.85963499 -3.65655335 0.00433241 0 0 Z " fill="#BFBFC0" transform="translate(101.09375,30.8671875)"/>
<path d="M0 0 C0.88602402 0.0199855 1.77204803 0.03997101 2.68492126 0.06056213 C3.68588333 0.08065842 4.6868454 0.1007547 5.71813965 0.12145996 C6.80666733 0.14849503 7.89519501 0.17553009 9.01670837 0.2033844 C10.12509567 0.22699539 11.23348297 0.25060638 12.37545776 0.27493286 C15.93177913 0.35179001 19.48789468 0.43571903 23.04405212 0.51979065 C25.44833877 0.57298927 27.8526356 0.62572979 30.25694275 0.67799377 C36.1652745 0.80743481 42.07345218 0.94268945 47.98155212 1.08229065 C47.98155212 1.41229065 47.98155212 1.74229065 47.98155212 2.08229065 C31.81155212 2.08229065 15.64155212 2.08229065 -1.01844788 2.08229065 C-1.01844788 31.78229065 -1.01844788 61.48229065 -1.01844788 92.08229065 C6.24155212 92.08229065 13.50155212 92.08229065 20.98155212 92.08229065 C20.98155212 83.83229065 20.98155212 75.58229065 20.98155212 67.08229065 C30.67431622 66.45695103 40.26469833 65.91379029 49.98155212 66.08229065 C49.98155212 66.41229065 49.98155212 66.74229065 49.98155212 67.08229065 C41.31158508 68.2494016 32.7078582 68.17973079 23.98155212 68.08229065 C23.99315369 68.6649469 24.00475525 69.24760315 24.01670837 69.84791565 C24.10578155 77.94084954 24.04161757 86.21696705 21.98155212 94.08229065 C18.35656879 94.11122997 14.73161499 94.12906857 11.10655212 94.14479065 C9.55774353 94.15735901 9.55774353 94.15735901 7.97764587 94.17018127 C6.99151306 94.17340393 6.00538025 94.17662659 4.98936462 94.1799469 C4.07815857 94.18518372 3.16695251 94.19042053 2.22813416 94.19581604 C-0.01844788 94.08229065 -0.01844788 94.08229065 -2.01844788 93.08229065 C-2.15031592 83.74478209 -2.28079609 74.40725539 -2.4095993 65.06970406 C-2.46947662 60.73193044 -2.52979708 56.39416402 -2.59120178 52.05641174 C-2.65066172 47.85480582 -2.70886432 43.65318406 -2.76626587 39.45154953 C-2.78815732 37.86433692 -2.81046988 36.27713004 -2.83325195 34.68992996 C-2.90774424 29.48747721 -2.9698605 24.28505005 -3.01844788 19.08229065 C-3.02677643 18.25341087 -3.03510498 17.4245311 -3.04368591 16.57053375 C-3.06650595 14.05475926 -3.08171385 11.53905158 -3.09461975 9.02320862 C-3.10217537 8.24229418 -3.10973099 7.46137974 -3.11751556 6.65680122 C-3.12289248 4.7983454 -3.07593142 2.93986503 -3.01844788 1.08229065 C-2.01844788 0.08229065 -2.01844788 0.08229065 0 0 Z " fill="#7D7E7F" transform="translate(523.0184478759766,30.917709350585938)"/>
<path d="M0 0 C1.29921387 -0.00209473 2.59842773 -0.00418945 3.93701172 -0.00634766 C5.34603068 -0.00227927 6.75504786 0.0024535 8.1640625 0.0078125 C8.86791077 0.0093634 9.57175903 0.01091431 10.29693604 0.01251221 C18.75653283 0.03449774 27.21279757 0.10067127 35.6640625 0.5078125 C36.72826416 0.55397705 36.72826416 0.55397705 37.81396484 0.60107422 C42.95539026 0.89914579 47.80708062 1.90285411 52.7890625 3.1328125 C49.1433448 4.3947917 46.55090762 3.76651787 42.7890625 3.1328125 C39.02300212 2.92745571 35.25521056 2.87688275 31.484375 2.81640625 C30.04856079 2.78842957 30.04856079 2.78842957 28.58374023 2.7598877 C25.02726985 2.69187854 21.47065599 2.63154625 17.9140625 2.5703125 C9.9528125 2.4259375 1.9915625 2.2815625 -6.2109375 2.1328125 C-6.2109375 31.8328125 -6.2109375 61.5328125 -6.2109375 92.1328125 C1.3790625 92.1328125 8.9690625 92.1328125 16.7890625 92.1328125 C16.7890625 83.8828125 16.7890625 75.6328125 16.7890625 67.1328125 C21.4090625 67.1328125 26.0290625 67.1328125 30.7890625 67.1328125 C30.7890625 67.4628125 30.7890625 67.7928125 30.7890625 68.1328125 C27.1590625 68.1328125 23.5290625 68.1328125 19.7890625 68.1328125 C19.7890625 68.7928125 19.7890625 69.4528125 19.7890625 70.1328125 C19.1290625 70.1328125 18.4690625 70.1328125 17.7890625 70.1328125 C17.9334375 70.70128906 18.0778125 71.26976563 18.2265625 71.85546875 C19.96974249 79.10661327 20.37816248 85.76516714 18.7890625 93.1328125 C17.3040625 94.1228125 17.3040625 94.1228125 15.7890625 95.1328125 C15.2940625 94.6378125 15.2940625 94.6378125 14.7890625 94.1328125 C13.2386405 94.05805734 11.68489708 94.04957195 10.1328125 94.0703125 C9.19308594 94.07804687 8.25335937 94.08578125 7.28515625 94.09375 C6.29644531 94.10664062 5.30773437 94.11953125 4.2890625 94.1328125 C2.34119997 94.15820836 0.39327459 94.17927989 -1.5546875 94.1953125 C-2.85696289 94.21271484 -2.85696289 94.21271484 -4.18554688 94.23046875 C-6.2109375 94.1328125 -6.2109375 94.1328125 -7.2109375 93.1328125 C-7.31148863 90.27726669 -7.34709294 87.44587227 -7.34033203 84.58984375 C-7.34208435 83.69397552 -7.34383667 82.7981073 -7.34564209 81.87509155 C-7.35006197 78.89847913 -7.34712214 75.92192558 -7.34375 72.9453125 C-7.344423 70.88647449 -7.34539299 68.82763656 -7.34664917 66.76879883 C-7.34812633 62.44774623 -7.34597101 58.12671427 -7.34130859 53.80566406 C-7.3356113 48.25344704 -7.33889021 42.70127836 -7.34488106 37.14906311 C-7.34848619 32.89587029 -7.34734831 28.64268901 -7.34475327 24.38949585 C-7.34408386 22.34166457 -7.34491288 20.29383227 -7.34723282 18.2460022 C-7.34975856 15.38923342 -7.34591986 12.53254407 -7.34033203 9.67578125 C-7.34235626 8.82067963 -7.34438049 7.965578 -7.34646606 7.08456421 C-7.32066593 0.00251978 -6.96378354 0.00669871 0 0 Z " fill="#9FA1A2" transform="translate(616.2109375,30.8671875)"/>
<path d="M0 0 C0.66 0 1.32 0 2 0 C2 0.66 2 1.32 2 2 C11.405 1.505 11.405 1.505 21 1 C21.33 1.66 21.66 2.32 22 3 C15.07 3 8.14 3 1 3 C1 32.7 1 62.4 1 93 C7.93 93 14.86 93 22 93 C22 74.85 22 56.7 22 38 C24.67347521 40.67347521 24.23830188 42.68830073 24.25224304 46.32235718 C24.24505753 47.19308868 24.23787201 48.06382019 24.23046875 48.9609375 C24.22978142 50.31235336 24.22978142 50.31235336 24.2290802 51.69107056 C24.22605324 53.60607207 24.21815378 55.52107103 24.20581055 57.43603516 C24.18778944 60.32854227 24.18529935 63.22072439 24.18554688 66.11328125 C24.16701824 75.47054704 23.97818653 84.68766419 23 94 C15.41 94 7.82 94 0 94 C-0.1529894 81.89163462 -0.30174941 69.7832379 -0.4429636 57.67472935 C-0.50869892 52.05289146 -0.57632307 46.43108925 -0.64819336 40.80932617 C-0.71742183 35.38886445 -0.78178097 29.96836519 -0.84269524 24.54780388 C-0.8668597 22.47483134 -0.89280953 20.40187886 -0.92053413 18.32895088 C-0.958925 15.43621079 -0.99109344 12.54346588 -1.02172852 9.65063477 C-1.03467453 8.78461136 -1.04762054 7.91858795 -1.06095886 7.02632141 C-1.07899823 5.01752584 -1.0452683 3.00836647 -1 1 C-0.67 0.67 -0.34 0.34 0 0 Z " fill="#9D9DA0" transform="translate(34,30)"/>
<path d="M0 0 C0.33 0 0.66 0 1 0 C1 4.95 1 9.9 1 15 C2.26706787 14.96447021 3.53413574 14.92894043 4.83959961 14.89233398 C9.52273796 14.76235551 14.20603215 14.63905863 18.8894043 14.51782227 C20.91972695 14.46431997 22.95000214 14.40898453 24.98022461 14.35180664 C27.89166014 14.2701245 30.80320053 14.19494999 33.71484375 14.12109375 C34.6283812 14.09405869 35.54191864 14.06702362 36.48313904 14.03916931 C38.65484502 13.98726229 40.82770633 13.98810764 43 14 C44 15 44 15 44.11352539 17.04125977 C44.10828857 17.91580811 44.10305176 18.79035645 44.09765625 19.69140625 C44.09443359 20.63564453 44.09121094 21.57988281 44.08789062 22.55273438 C44.07532227 24.04256836 44.07532227 24.04256836 44.0625 25.5625 C44.05798828 26.55958984 44.05347656 27.55667969 44.04882812 28.58398438 C44.03700007 31.05604849 44.02051849 33.52799518 44 36 C42.02 36.495 42.02 36.495 40 37 C40 36.34 40 35.68 40 35 C27.13 35 14.26 35 1 35 C1 40.28 1 45.56 1 51 C17.17 50.67 33.34 50.34 50 50 C50.495 51.98 50.495 51.98 51 54 C50.67 53.34 50.34 52.68 50 52 C33.5 52 17 52 0 52 C0 46.06 0 40.12 0 34 C14.19 34 28.38 34 43 34 C43 28.06 43 22.12 43 16 C28.81 16 14.62 16 0 16 C0 10.72 0 5.44 0 0 Z " fill="#E5E5E5" transform="translate(160,53)"/>
<path d="M0 0 C0.00879936 0.93388802 0.00879936 0.93388802 0.01777649 1.88664246 C0.08220988 8.42560822 0.16675183 14.9641043 0.26245117 21.50268555 C0.29550007 23.93589038 0.32359285 26.36916819 0.34643555 28.80249023 C0.38035241 32.32046319 0.43268453 35.83777926 0.48828125 39.35546875 C0.49467117 40.42580856 0.5010611 41.49614838 0.50764465 42.59892273 C0.69424043 52.40372161 1.2512057 62.42754103 8 70 C4.19197555 68.5039904 2.30575443 66.33936849 0 63 C-1.10046423 59.72700048 -1.12099524 56.65781175 -1.11352539 53.22167969 C-1.11344986 52.0607782 -1.11337433 50.89987671 -1.11329651 49.70379639 C-1.10813522 48.45576233 -1.10297394 47.20772827 -1.09765625 45.921875 C-1.0962413 44.64016418 -1.09482635 43.35845337 -1.09336853 42.03790283 C-1.08955901 38.6381636 -1.07974214 35.2384674 -1.06866455 31.83874512 C-1.05841674 28.366461 -1.0538637 24.8941699 -1.04882812 21.421875 C-1.03811841 14.61456392 -1.02053433 7.80728846 -1 1 C-8.59 1 -16.18 1 -24 1 C-24 20.47 -24 39.94 -24 60 C-24.66 60 -25.32 60 -26 60 C-25.505 30.3 -25.505 30.3 -25 0 C-5 -1 -5 -1 0 0 Z " fill="#CBCDCE" transform="translate(247,32)"/>
<path d="M0 0 C4.8571875 -0.061875 4.8571875 -0.061875 9.8125 -0.125 C10.82932861 -0.14320801 11.84615723 -0.16141602 12.89379883 -0.18017578 C13.69841553 -0.1851709 14.50303223 -0.19016602 15.33203125 -0.1953125 C16.15421143 -0.20578613 16.9763916 -0.21625977 17.82348633 -0.22705078 C20 0 20 0 23 2 C16.33333333 2 9.66666667 2 3 2 C3 10.25 3 18.5 3 27 C2.34 27 1.68 27 1 27 C1 27.66 1 28.32 1 29 C4.20861774 28.86004486 7.41681288 28.71197743 10.625 28.5625 C11.52863281 28.52318359 12.43226563 28.48386719 13.36328125 28.44335938 C17.98216146 28.22421542 22.45153636 27.8991149 27 27 C26 29 26 29 24.26269531 29.61889648 C21.73138369 30.04524278 19.36415786 30.11258231 16.796875 30.09765625 C15.91354492 30.09515869 15.03021484 30.09266113 14.12011719 30.09008789 C13.00797852 30.08098389 11.89583984 30.07187988 10.75 30.0625 C7.2025 30.041875 3.655 30.02125 0 30 C0 20.1 0 10.2 0 0 Z " fill="#C5C6C7" transform="translate(633,50)"/>
<path d="M0 0 C0 0.33 0 0.66 0 1 C-8.66996704 2.16711095 -17.27369392 2.09744014 -26 2 C-25.98839844 2.58265625 -25.97679687 3.1653125 -25.96484375 3.765625 C-25.87577058 11.85855889 -25.93993455 20.1346764 -28 28 C-31.62493334 28.05787784 -35.24974857 28.0935542 -38.875 28.125 C-39.90753906 28.14175781 -40.94007813 28.15851563 -42.00390625 28.17578125 C-42.99003906 28.18222656 -43.97617187 28.18867187 -44.9921875 28.1953125 C-46.35899658 28.21102295 -46.35899658 28.21102295 -47.75341797 28.22705078 C-50 28 -50 28 -52 26 C-44.41 26 -36.82 26 -29 26 C-29 17.75 -29 9.5 -29 1 C-19.3072359 0.37466038 -9.71685379 -0.16850035 0 0 Z " fill="#B5B6B7" transform="translate(573,97)"/>
<path d="M0 0 C1.24330078 -0.01836914 1.24330078 -0.01836914 2.51171875 -0.03710938 C3.30964844 -0.03904297 4.10757813 -0.04097656 4.9296875 -0.04296875 C6.02772705 -0.04913208 6.02772705 -0.04913208 7.14794922 -0.05541992 C9.125 0.1875 9.125 0.1875 12.125 2.1875 C5.525 2.1875 -1.075 2.1875 -7.875 2.1875 C-7.875 10.7675 -7.875 19.3475 -7.875 28.1875 C-2.265 28.5175 3.345 28.8475 9.125 29.1875 C9.125 29.5175 9.125 29.8475 9.125 30.1875 C2.855 30.1875 -3.415 30.1875 -9.875 30.1875 C-9.89791394 26.07572073 -9.91783951 21.96410342 -9.92993164 17.85229492 C-9.9349708 16.45254772 -9.94180216 15.0528058 -9.95043945 13.65307617 C-9.9625232 11.64504223 -9.96769807 9.63697043 -9.97265625 7.62890625 C-9.97789307 6.41920166 -9.98312988 5.20949707 -9.98852539 3.96313477 C-9.75049029 -1.85669553 -4.61887494 0.00355846 0 0 Z " fill="#A0A1A3" transform="translate(553.875,49.8125)"/>
<path d="M0 0 C4.62 0 9.24 0 14 0 C14 0.33 14 0.66 14 1 C10.37 1 6.74 1 3 1 C3 1.66 3 2.32 3 3 C2.34 3 1.68 3 1 3 C1.144375 3.56847656 1.28875 4.13695313 1.4375 4.72265625 C3.18067999 11.97380077 3.58909998 18.63235464 2 26 C1.01 26.66 0.02 27.32 -1 28 C-1.33 27.34 -1.66 26.68 -2 26 C-1.34 26 -0.68 26 0 26 C0 17.42 0 8.84 0 0 Z " fill="#FEFEFE" transform="translate(633,98)"/>
<path d="M0 0 C0.99 0.33 1.98 0.66 3 1 C4.70016844 1.08178114 6.40336297 1.10749501 8.10546875 1.09765625 C9.57983398 1.09282227 9.57983398 1.09282227 11.08398438 1.08789062 C12.10814453 1.07951172 13.13230469 1.07113281 14.1875 1.0625 C15.22326172 1.05798828 16.25902344 1.05347656 17.32617188 1.04882812 C19.88417266 1.0370401 22.44205733 1.02058515 25 1 C25.33773438 1.74765625 25.67546875 2.4953125 26.0234375 3.265625 C26.46945312 4.25046875 26.91546875 5.2353125 27.375 6.25 C28.03628906 7.71179687 28.03628906 7.71179687 28.7109375 9.203125 C29.91221489 11.92562513 29.91221489 11.92562513 31.2265625 14.109375 C32 16 32 16 31 20 C28.69 14.72 26.38 9.44 24 4 C15.75 3.67 7.5 3.34 -1 3 C-1.33 4.65 -1.66 6.3 -2 8 C-2.66 8.66 -3.32 9.32 -4 10 C-3.43454163 6.04179141 -2.19097652 3.3340947 0 0 Z " fill="#C3C4C5" transform="translate(1001,30)"/>
<path d="M0 0 C0.66 0 1.32 0 2 0 C2 0.66 2 1.32 2 2 C11.405 1.505 11.405 1.505 21 1 C21.33 1.66 21.66 2.32 22 3 C15.07 3 8.14 3 1 3 C1 14.88 1 26.76 1 39 C0.67 39 0.34 39 0 39 C-0.16722525 33.60670134 -0.32782368 28.21326249 -0.48217773 22.81958008 C-0.53567534 20.9832625 -0.59101046 19.14699753 -0.64819336 17.31079102 C-0.72988864 14.67736153 -0.80505738 12.04381595 -0.87890625 9.41015625 C-0.90594131 8.58411392 -0.93297638 7.75807159 -0.96083069 6.90699768 C-1.01283011 4.9386419 -1.01187837 2.96900669 -1 1 C-0.67 0.67 -0.34 0.34 0 0 Z " fill="#808183" transform="translate(34,30)"/>
<path d="M0 0 C2.62386487 3.06117568 3 3.73173127 3 8 C0.525 7.505 0.525 7.505 -2 7 C-2.33 7.66 -2.66 8.32 -3 9 C-3 8.34 -3 7.68 -3 7 C-5.1462026 7.14029419 -7.29196218 7.28738164 -9.4375 7.4375 C-10.63246094 7.51871094 -11.82742188 7.59992188 -13.05859375 7.68359375 C-15.88570244 7.67656114 -15.88570244 7.67656114 -17 9 C-19.4375 9.1875 -19.4375 9.1875 -22 9 C-22.66 8.34 -23.32 7.68 -24 7 C-23.67 6.01 -23.34 5.02 -23 4 C-23 4.66 -23 5.32 -23 6 C-15.08 6 -7.16 6 1 6 C0.67 4.02 0.34 2.04 0 0 Z " fill="#B9BABB" transform="translate(1061,117)"/>
<path d="M0 0 C1.125 3.75 1.125 3.75 0 6 C7.59 6 15.18 6 23 6 C23 6.33 23 6.66 23 7 C21.19402344 7.09087891 21.19402344 7.09087891 19.3515625 7.18359375 C17.77602923 7.26799732 16.20050904 7.35264541 14.625 7.4375 C13.8309375 7.47681641 13.036875 7.51613281 12.21875 7.55664062 C7.97398779 7.68893404 7.97398779 7.68893404 4 9 C2.00039988 9.039992 -0.00047242 9.04346799 -2 9 C-2.33 7.02 -2.66 5.04 -3 3 C-2.01 3 -1.02 3 0 3 C0 2.01 0 1.02 0 0 Z " fill="#B9B9BA" transform="translate(963,117)"/>
<path d="M0 0 C3 2 3 2 3.765625 4.86328125 C3.92546875 6.00152344 4.0853125 7.13976562 4.25 8.3125 C4.42015625 9.44300781 4.5903125 10.57351562 4.765625 11.73828125 C4.98886951 14.84510066 4.95523451 17.04791888 4 20 C3.03053783 21.02963251 2.03351621 22.0346792 1 23 C1.00523682 22.44538086 1.01047363 21.89076172 1.01586914 21.31933594 C1.03671031 18.79623557 1.04968282 16.27315336 1.0625 13.75 C1.07087891 12.87730469 1.07925781 12.00460938 1.08789062 11.10546875 C1.09111328 10.26113281 1.09433594 9.41679688 1.09765625 8.546875 C1.10289307 7.77182617 1.10812988 6.99677734 1.11352539 6.19824219 C1.00036998 4.00716402 0.60552448 2.10362139 0 0 Z " fill="#DCDCDD" transform="translate(877,84)"/>
<path d="M0 0 C0.99 0.33 1.98 0.66 3 1 C2.34 2.32 1.68 3.64 1 5 C0.45182617 4.84152588 -0.09634766 4.68305176 -0.66113281 4.51977539 C-3.28238816 3.9372438 -5.73872553 3.78793845 -8.421875 3.68359375 C-9.95908203 3.62075195 -9.95908203 3.62075195 -11.52734375 3.55664062 C-12.59082031 3.51732422 -13.65429688 3.47800781 -14.75 3.4375 C-15.82894531 3.39431641 -16.90789062 3.35113281 -18.01953125 3.30664062 C-20.67956428 3.20071011 -23.33968812 3.09863579 -26 3 C-26 2.67 -26 2.34 -26 2 C-17.42 2 -8.84 2 0 2 C0 1.34 0 0.68 0 0 Z " fill="#ABABAC" transform="translate(403,121)"/>
<path d="M0 0 C2 2 2 2 2 6 C9.26 5.67 16.52 5.34 24 5 C24 5.66 24 6.32 24 7 C15.42 7 6.84 7 -2 7 C-1.34 4.69 -0.68 2.38 0 0 Z " fill="#F8F8F8" transform="translate(1001,82)"/>
<path d="M0 0 C7.26 0.33 14.52 0.66 22 1 C22 1.33 22 1.66 22 2 C6.98660031 3.66156202 6.98660031 3.66156202 0 1 C0 0.67 0 0.34 0 0 Z " fill="#D1D2D2" transform="translate(829,123)"/>
<path d="M0 0 C-1.44781793 3.44428265 -3.27694609 5.36130962 -6.125 7.75 C-7.21167969 8.67039062 -7.21167969 8.67039062 -8.3203125 9.609375 C-8.87460937 10.06828125 -9.42890625 10.5271875 -10 11 C-10 8 -10 8 -8.3203125 5.95703125 C-7.23363281 4.89548828 -7.23363281 4.89548828 -6.125 3.8125 C-5.40570313 3.09707031 -4.68640625 2.38164063 -3.9453125 1.64453125 C-2 0 -2 0 0 0 Z " fill="#787979" transform="translate(429,41)"/>
<path d="M0 0 C0.99 0.33 1.98 0.66 3 1 C2.34 1 1.68 1 1 1 C0.773125 1.556875 0.54625 2.11375 0.3125 2.6875 C-1.37550036 5.66159588 -3.46676517 7.72008865 -6 10 C-6.66 10 -7.32 10 -8 10 C-7.4346089 6.49304707 -6.31277274 4.97267387 -3.625 2.6875 C-3.01914062 2.15511719 -2.41328125 1.62273438 -1.7890625 1.07421875 C-0.90347656 0.54248047 -0.90347656 0.54248047 0 0 Z " fill="#8B8B8C" transform="translate(818,36)"/>
<path d="M0 0 C0.66 0.33 1.32 0.66 2 1 C0.50958227 4.79379058 -1.69062512 6.68343758 -5 9 C-5.66 9 -6.32 9 -7 9 C-5.44499019 5.18315774 -2.96404505 2.80804268 0 0 Z " fill="#787879" transform="translate(713,42)"/>
<path d="M0 0 C0.66 0 1.32 0 2 0 C1.67 4.95 1.34 9.9 1 15 C0.67 15 0.34 15 0 15 C-0.19390729 12.68802845 -0.37996367 10.3753971 -0.5625 8.0625 C-0.71912109 6.13083984 -0.71912109 6.13083984 -0.87890625 4.16015625 C-0.91886719 3.11730469 -0.95882812 2.07445312 -1 1 C-0.67 0.67 -0.34 0.34 0 0 Z " fill="#B0B1B3" transform="translate(34,30)"/>
<path d="M0 0 C0.33 0.66 0.66 1.32 1 2 C0.67 2.66 0.34 3.32 0 4 C0.66 4.33 1.32 4.66 2 5 C-1.75 8 -1.75 8 -4 8 C-2.25 2.25 -2.25 2.25 0 0 Z " fill="#8D8E90" transform="translate(482,89)"/>
<path d="M0 0 C2.35953094 2.35953094 2.49141413 3.77895617 3 7 C1.35 7 -0.3 7 -2 7 C-1.34 4.69 -0.68 2.38 0 0 Z " fill="#E5E5E6" transform="translate(1001,82)"/>
<path d="M0 0 C0.66 0.33 1.32 0.66 2 1 C1.35455571 4.48539917 -0.10134397 7.02819057 -2 10 C-3 8 -3 8 -2.44140625 6.0546875 C-2.15136719 5.33539063 -1.86132812 4.61609375 -1.5625 3.875 C-1.27503906 3.15054688 -0.98757813 2.42609375 -0.69140625 1.6796875 C-0.46324219 1.12539062 -0.23507812 0.57109375 0 0 Z " fill="#DCDDDD" transform="translate(687,73)"/>
<path d="M0 0 C2 1 2 1 2 1 Z " fill="#FFFFFF" transform="translate(1045,63)"/>
<path d="" fill="#FFFFFF" transform="translate(0,0)"/>
<path d="" fill="#FFFFFF" transform="translate(0,0)"/>
<path d="" fill="#FFFFFF" transform="translate(0,0)"/>
<path d="" fill="#FFFFFF" transform="translate(0,0)"/>
<path d="" fill="#FFFFFF" transform="translate(0,0)"/>
<path d="" fill="#FFFFFF" transform="translate(0,0)"/>
<path d="" fill="#FFFFFF" transform="translate(0,0)"/>
<path d="" fill="#FFFFFF" transform="translate(0,0)"/>
<path d="" fill="#FFFFFF" transform="translate(0,0)"/>
<path d="" fill="#FFFFFF" transform="translate(0,0)"/>
<path d="" fill="#FFFFFF" transform="translate(0,0)"/>
<path d="" fill="#FFFFFF" transform="translate(0,0)"/>
<path d="" fill="#FFFFFF" transform="translate(0,0)"/>
<path d="" fill="#FFFFFF" transform="translate(0,0)"/>
<path d="" fill="#FFFFFF" transform="translate(0,0)"/>
<path d="" fill="#FFFFFF" transform="translate(0,0)"/>
<path d="" fill="#FFFFFF" transform="translate(0,0)"/>
<path d="" fill="#FFFFFF" transform="translate(0,0)"/>
<path d="" fill="#FFFFFF" transform="translate(0,0)"/>
<path d="" fill="#FFFFFF" transform="translate(0,0)"/>
<path d="" fill="#FFFFFF" transform="translate(0,0)"/>
<path d="" fill="#FFFFFF" transform="translate(0,0)"/>
<path d="" fill="#FFFFFF" transform="translate(0,0)"/>
<path d="" fill="#FFFFFF" transform="translate(0,0)"/>
<path d="" fill="#FFFFFF" transform="translate(0,0)"/>
<path d="" fill="#FFFFFF" transform="translate(0,0)"/>
<path d="" fill="#FFFFFF" transform="translate(0,0)"/>
<path d="" fill="#FFFFFF" transform="translate(0,0)"/>
<path d="" fill="#FFFFFF" transform="translate(0,0)"/>
<path d="" fill="#FFFFFF" transform="translate(0,0)"/>
<path d="" fill="#FFFFFF" transform="translate(0,0)"/>
<path d="" fill="#FFFFFF" transform="translate(0,0)"/>
<path d="" fill="#FFFFFF" transform="translate(0,0)"/>
<path d="" fill="#FFFFFF" transform="translate(0,0)"/>
<path d="" fill="#FFFFFF" transform="translate(0,0)"/>
<path d="" fill="#FFFFFF" transform="translate(0,0)"/>
<path d="" fill="#FFFFFF" transform="translate(0,0)"/>
<path d="" fill="#FFFFFF" transform="translate(0,0)"/>
<path d="" fill="#FFFFFF" transform="translate(0,0)"/>
<path d="" fill="#FFFFFF" transform="translate(0,0)"/>
<path d="" fill="#FFFFFF" transform="translate(0,0)"/>
<path d="" fill="#FFFFFF" transform="translate(0,0)"/>
<path d="" fill="#FFFFFF" transform="translate(0,0)"/>
<path d="" fill="#FFFFFF" transform="translate(0,0)"/>
</svg>
